<svg xmlns="http://www.w3.org/2000/svg" viewBox="0 0 273 33"><defs><style>.cls-1{fill:none;}.cls-2{fill:#fff;}</style></defs><title>1-800_2</title><g id="Layer_2" data-name="Layer 2"><g id="Layer_2-2" data-name="Layer 2"><rect class="cls-1" width="273" height="33"/></g><g id="Layer_1-2" data-name="Layer 1"><polygon class="cls-1" points="139.93 9.58 138.89 9.58 138.77 10.27 139.81 10.27 139.93 9.58"/><polygon class="cls-1" points="46.35 19.45 45.04 19.45 44.7 21.39 48.9 21.39 49.13 20.08 50.45 20.08 50.79 18.14 46.58 18.14 46.35 19.45"/><polygon class="cls-1" points="44.08 17.45 43.04 17.45 42.92 18.14 43.96 18.14 44.08 17.45"/><polygon class="cls-1" points="45.34 10.27 45.47 9.58 44.43 9.58 44.3 10.27 45.34 10.27"/><polygon class="cls-1" points="47.01 8.27 45.97 8.27 45.85 8.96 46.89 8.96 47.01 8.27"/><polygon class="cls-1" points="141.48 8.27 140.44 8.27 140.31 8.96 141.35 8.96 141.48 8.27"/><polygon class="cls-1" points="145.87 22.08 146.91 22.08 147.03 21.39 145.99 21.39 145.87 22.08"/><polygon class="cls-1" points="65.61 23.39 66.65 23.39 66.77 22.7 65.73 22.7 65.61 23.39"/><polygon class="cls-1" points="52.79 14.21 53.84 14.21 53.96 13.52 52.92 13.52 52.79 14.21"/><polygon class="cls-1" points="144.33 23.39 145.37 23.39 145.49 22.7 144.45 22.7 144.33 23.39"/><polygon class="cls-1" points="47.74 11.58 46.43 11.58 46.09 13.52 50.29 13.52 50.52 12.21 51.84 12.21 52.18 10.27 47.97 10.27 47.74 11.58"/><polygon class="cls-1" points="175.82 23.39 176.86 23.39 176.98 22.7 175.94 22.7 175.82 23.39"/><polygon class="cls-1" points="51.41 22.08 52.45 22.08 52.57 21.39 51.53 21.39 51.41 22.08"/><polygon class="cls-1" points="161.62 22.08 162.66 22.08 162.78 21.39 161.74 21.39 161.62 22.08"/><polygon class="cls-1" points="160.07 23.39 161.12 23.39 161.24 22.7 160.19 22.7 160.07 23.39"/><polygon class="cls-1" points="157.22 8.27 156.18 8.27 156.06 8.96 157.1 8.96 157.22 8.27"/><polygon class="cls-1" points="155.68 9.58 154.64 9.58 154.52 10.27 155.56 10.27 155.68 9.58"/><polygon class="cls-1" points="49.86 23.39 50.9 23.39 51.02 22.7 49.98 22.7 49.86 23.39"/><polygon class="cls-1" points="79.23 11.58 77.92 11.58 77.34 14.83 77.61 14.83 77.84 13.52 79.16 13.52 79.39 12.21 80.7 12.21 80.93 10.89 83.56 10.89 83.67 10.27 79.46 10.27 79.23 11.58"/><polygon class="cls-1" points="81.35 23.39 82.39 23.39 82.51 22.7 81.47 22.7 81.35 23.39"/><polygon class="cls-1" points="82.89 22.08 83.94 22.08 84.06 21.39 83.02 21.39 82.89 22.08"/><polygon class="cls-1" points="76.83 10.27 76.95 9.58 75.92 9.58 75.79 10.27 76.83 10.27"/><polygon class="cls-1" points="78.5 8.27 77.46 8.27 77.34 8.96 78.38 8.96 78.5 8.27"/><polygon class="cls-1" points="79.73 16.14 78.69 16.14 78.57 16.83 79.61 16.83 79.73 16.14"/><polygon class="cls-1" points="81.28 14.83 80.24 14.83 80.12 15.52 81.16 15.52 81.28 14.83"/><polygon class="cls-1" points="78.19 17.45 77.15 17.45 77.03 18.14 78.07 18.14 78.19 17.45"/><polygon class="cls-1" points="82.01 18.14 80.69 18.14 80.46 19.45 79.15 19.45 78.92 20.77 76.3 20.77 76.19 21.39 80.39 21.39 80.62 20.08 81.94 20.08 82.51 16.83 82.24 16.83 82.01 18.14"/><polygon class="cls-1" points="114.54 12.21 113.5 12.21 113.38 12.89 114.42 12.89 114.54 12.21"/><polygon class="cls-1" points="61.09 10.27 61.21 9.58 60.17 9.58 60.05 10.27 61.09 10.27"/><polygon class="cls-1" points="82.82 13.52 81.78 13.52 81.66 14.21 82.7 14.21 82.82 13.52"/><polygon class="cls-1" points="66.26 18.14 64.95 18.14 64.72 19.45 63.41 19.45 63.17 20.77 60.55 20.77 60.44 21.39 64.65 21.39 64.88 20.08 66.19 20.08 66.77 16.83 66.49 16.83 66.26 18.14"/><polygon class="cls-1" points="63.48 11.58 62.17 11.58 61.6 14.83 61.87 14.83 62.1 13.52 63.41 13.52 63.64 12.21 64.96 12.21 65.19 10.89 67.81 10.89 67.92 10.27 63.71 10.27 63.48 11.58"/><polygon class="cls-1" points="67.15 22.08 68.19 22.08 68.31 21.39 67.27 21.39 67.15 22.08"/><polygon class="cls-1" points="63.99 16.14 62.95 16.14 62.83 16.83 63.87 16.83 63.99 16.14"/><polygon class="cls-1" points="62.45 17.45 61.41 17.45 61.28 18.14 62.33 18.14 62.45 17.45"/><polygon class="cls-1" points="67.08 13.52 66.04 13.52 65.92 14.21 66.96 14.21 67.08 13.52"/><polygon class="cls-1" points="65.53 14.83 64.49 14.83 64.37 15.52 65.41 15.52 65.53 14.83"/><polygon class="cls-1" points="62.76 8.27 61.71 8.27 61.59 8.96 62.63 8.96 62.76 8.27"/><polygon class="cls-1" points="249.37 21.39 253.58 21.39 253.81 20.08 255.13 20.08 256.85 10.27 251.33 10.27 249.37 21.39"/><polygon class="cls-1" points="177.36 22.08 178.4 22.08 178.52 21.39 177.48 21.39 177.36 22.08"/><polygon class="cls-1" points="193.11 22.08 194.15 22.08 194.27 21.39 193.23 21.39 193.11 22.08"/><polygon class="cls-1" points="191.56 23.39 192.6 23.39 192.72 22.7 191.68 22.7 191.56 23.39"/><polygon class="cls-1" points="223.05 23.39 224.09 23.39 224.21 22.7 223.17 22.7 223.05 23.39"/><polygon class="cls-1" points="256.08 22.08 257.13 22.08 257.25 21.39 256.2 21.39 256.08 22.08"/><polygon class="cls-1" points="224.59 22.08 225.64 22.08 225.76 21.39 224.72 21.39 224.59 22.08"/><polygon class="cls-1" points="217.89 21.39 222.09 21.39 222.32 20.08 223.64 20.08 225.37 10.27 219.85 10.27 217.89 21.39"/><polygon class="cls-1" points="254.54 23.39 255.58 23.39 255.7 22.7 254.66 22.7 254.54 23.39"/><polygon class="cls-1" points="171.42 9.58 170.38 9.58 170.26 10.27 171.3 10.27 171.42 9.58"/><polygon class="cls-1" points="172.97 8.27 171.92 8.27 171.8 8.96 172.84 8.96 172.97 8.27"/><polygon points="12.74 24.01 12.39 26.01 20.27 26.01 20.73 23.39 18.38 23.39 18.27 24.01 12.74 24.01"/><polygon points="15.06 10.89 14.71 12.89 14.98 12.89 15.33 10.89 15.06 10.89"/><polygon points="18.53 7.64 16.1 21.39 18.46 21.39 20.88 7.64 18.53 7.64"/><polygon points="36.71 16.14 28.57 16.14 28.21 18.14 38.71 18.14 39.17 15.52 36.82 15.52 36.71 16.14"/><polygon points="44.3 10.27 43.96 12.21 45.27 12.21 45.04 13.52 46.09 13.52 46.43 11.58 47.74 11.58 47.97 10.27 52.18 10.27 52.3 9.58 50.99 9.58 51.22 8.27 47.01 8.27 46.89 8.96 45.85 8.96 45.74 9.58 45.47 9.58 45.34 10.27 44.3 10.27"/><polygon points="54.45 18.14 54.92 15.52 56.23 15.52 57.15 10.27 55.84 10.27 56.07 8.96 55.03 8.96 54.23 13.52 53.96 13.52 53.84 14.21 52.79 14.21 52.45 16.14 53.77 16.14 52.84 21.39 52.57 21.39 52.45 22.08 51.41 22.08 51.3 22.7 51.02 22.7 50.9 23.39 49.86 23.39 49.75 24.01 42.92 24.01 42.8 24.7 44.11 24.7 43.88 26.01 51.75 26.01 51.98 24.7 53.3 24.7 53.53 23.39 54.84 23.39 55.77 18.14 54.45 18.14"/><polygon points="41.84 22.7 41.72 23.39 41.99 23.39 42.11 22.7 41.84 22.7"/><polygon points="54.88 8.27 54.99 7.64 53.95 7.64 53.84 8.27 54.88 8.27"/><polygon points="44.7 21.39 45.04 19.45 46.35 19.45 46.58 18.14 50.79 18.14 50.91 17.45 49.6 17.45 49.83 16.14 44.58 16.14 44.35 17.45 44.08 17.45 43.96 18.14 42.92 18.14 42.58 20.08 43.89 20.08 43.66 21.39 44.7 21.39"/><polygon points="60.44 21.39 60.55 20.77 63.17 20.77 63.41 19.45 64.72 19.45 64.95 18.14 66.26 18.14 66.49 16.83 66.77 16.83 67.35 13.52 67.08 13.52 66.96 14.21 65.92 14.21 65.81 14.83 65.53 14.83 65.41 15.52 64.37 15.52 64.26 16.14 63.99 16.14 63.87 16.83 62.83 16.83 62.72 17.45 62.45 17.45 62.33 18.14 61.28 18.14 61.17 18.77 58.55 18.77 58.32 20.08 59.63 20.08 59.4 21.39 60.44 21.39"/><polygon points="57.59 22.7 57.46 23.39 57.74 23.39 57.86 22.7 57.59 22.7"/><polygon points="60.05 10.27 59.01 16.14 60.33 16.14 60.56 14.83 61.6 14.83 62.17 11.58 63.48 11.58 63.71 10.27 67.92 10.27 68.04 9.58 66.73 9.58 66.96 8.27 62.76 8.27 62.63 8.96 61.59 8.96 61.48 9.58 61.21 9.58 61.09 10.27 60.05 10.27"/><polygon points="70.63 8.27 70.74 7.64 69.7 7.64 69.58 8.27 70.63 8.27"/><polygon points="71.58 10.27 71.82 8.96 70.78 8.96 68.58 21.39 68.31 21.39 68.19 22.08 67.15 22.08 67.04 22.7 66.77 22.7 66.65 23.39 65.61 23.39 65.5 24.01 58.67 24.01 58.54 24.7 59.86 24.7 59.63 26.01 67.5 26.01 67.73 24.7 69.04 24.7 69.27 23.39 70.58 23.39 72.9 10.27 71.58 10.27"/><polygon points="76.19 21.39 76.3 20.77 78.92 20.77 79.15 19.45 80.46 19.45 80.69 18.14 82.01 18.14 82.24 16.83 82.51 16.83 83.09 13.52 82.82 13.52 82.7 14.21 81.66 14.21 81.55 14.83 81.28 14.83 81.16 15.52 80.12 15.52 80.01 16.14 79.73 16.14 79.61 16.83 78.57 16.83 78.46 17.45 78.19 17.45 78.07 18.14 77.03 18.14 76.92 18.77 74.3 18.77 74.06 20.08 75.38 20.08 75.14 21.39 76.19 21.39"/><polygon points="75.79 10.27 74.76 16.14 76.07 16.14 76.3 14.83 77.34 14.83 77.92 11.58 79.23 11.58 79.46 10.27 83.67 10.27 83.79 9.58 82.47 9.58 82.71 8.27 78.5 8.27 78.38 8.96 77.34 8.96 77.23 9.58 76.95 9.58 76.83 10.27 75.79 10.27"/><polygon points="87.56 8.96 86.52 8.96 84.33 21.39 84.06 21.39 83.94 22.08 82.89 22.08 82.78 22.7 82.51 22.7 82.39 23.39 81.35 23.39 81.24 24.01 74.41 24.01 74.29 24.7 75.6 24.7 75.37 26.01 83.24 26.01 83.47 24.7 84.78 24.7 85.02 23.39 86.33 23.39 88.64 10.27 87.33 10.27 87.56 8.96"/><polygon points="86.37 8.27 86.48 7.64 85.44 7.64 85.33 8.27 86.37 8.27"/><polygon points="73.33 22.7 73.21 23.39 73.48 23.39 73.6 22.7 73.33 22.7"/><polygon points="99.69 16.14 91.54 16.14 91.19 18.14 101.69 18.14 102.15 15.52 99.8 15.52 99.69 16.14"/><polygon points="110.84 10.89 110.95 10.27 109.91 10.27 109.8 10.89 110.84 10.89"/><polygon points="114.54 12.21 114.42 12.89 113.38 12.89 113.27 13.52 111.96 13.52 111.5 16.14 111.22 16.14 110.87 18.14 113.5 18.14 113.96 15.52 114.23 15.52 114.81 12.21 114.54 12.21"/><polygon points="108.02 13.52 108.25 12.21 106.94 12.21 104.86 24.01 104.59 24.01 104.23 26.01 106.86 26.01 108.94 14.21 109.21 14.21 109.33 13.52 108.02 13.52"/><polygon points="115.36 24.01 115.08 24.01 114.73 26.01 117.36 26.01 120.59 7.64 118.24 7.64 115.36 24.01"/><polygon points="108.95 8.27 108.72 9.58 109.76 9.58 110.1 7.64 107.75 7.64 107.64 8.27 108.95 8.27"/><polygon points="131.25 8.27 128.63 8.27 126.31 21.39 128.67 21.39 130.63 10.27 133.25 10.27 133.71 7.64 131.36 7.64 131.25 8.27"/><polygon points="125.73 8.27 125.38 10.27 125.65 10.27 126 8.27 125.73 8.27"/><polygon points="122.96 24.01 122.6 26.01 130.48 26.01 130.94 23.39 128.59 23.39 128.48 24.01 122.96 24.01"/><polygon points="148.92 18.14 149.15 16.83 148.11 16.83 147.31 21.39 147.03 21.39 146.91 22.08 145.87 22.08 145.76 22.7 145.49 22.7 145.37 23.39 144.33 23.39 144.22 24.01 137.39 24.01 137.27 24.7 138.58 24.7 138.35 26.01 146.22 26.01 146.45 24.7 147.76 24.7 147.99 23.39 149.31 23.39 150.23 18.14 148.92 18.14"/><polygon points="144.06 17.45 144.29 16.14 138.78 16.14 138.65 16.83 139.97 16.83 139.74 18.14 145.25 18.14 145.38 17.45 144.06 17.45"/><polygon points="137.7 14.83 137.57 15.52 137.84 15.52 137.97 14.83 137.7 14.83"/><polygon points="149.35 8.27 149.46 7.64 148.42 7.64 148.31 8.27 149.35 8.27"/><polygon points="139.16 21.39 139.27 20.77 138.23 20.77 138.12 21.39 139.16 21.39"/><polygon points="136.31 22.7 136.19 23.39 136.46 23.39 136.58 22.7 136.31 22.7"/><polygon points="147.96 16.14 148.07 15.52 147.03 15.52 146.92 16.14 147.96 16.14"/><polygon points="147.57 10.89 147.45 11.58 148.76 11.58 148.53 12.89 151.16 12.89 151.62 10.27 150.31 10.27 150.54 8.96 149.5 8.96 149.16 10.89 147.57 10.89"/><polygon points="145.45 9.58 145.68 8.27 141.48 8.27 141.35 8.96 140.31 8.96 140.2 9.58 139.93 9.58 139.81 10.27 138.77 10.27 138.43 12.21 139.74 12.21 139.51 13.52 140.55 13.52 140.89 11.58 142.2 11.58 142.44 10.27 146.64 10.27 146.76 9.58 145.45 9.58"/><polygon points="153.44 14.83 153.32 15.52 153.59 15.52 153.71 14.83 153.44 14.83"/><polygon points="159.81 17.45 160.04 16.14 154.52 16.14 154.4 16.83 155.71 16.83 155.48 18.14 161 18.14 161.12 17.45 159.81 17.45"/><polygon points="154.91 21.39 155.02 20.77 153.98 20.77 153.87 21.39 154.91 21.39"/><polygon points="164.66 18.14 164.9 16.83 163.85 16.83 163.05 21.39 162.78 21.39 162.66 22.08 161.62 22.08 161.51 22.7 161.24 22.7 161.12 23.39 160.07 23.39 159.97 24.01 153.13 24.01 153.01 24.7 154.32 24.7 154.09 26.01 161.97 26.01 162.19 24.7 163.51 24.7 163.74 23.39 165.05 23.39 165.98 18.14 164.66 18.14"/><polygon points="165.09 8.27 165.2 7.64 164.16 7.64 164.05 8.27 165.09 8.27"/><polygon points="163.71 16.14 163.81 15.52 162.77 15.52 162.66 16.14 163.71 16.14"/><polygon points="161.2 9.58 161.43 8.27 157.22 8.27 157.1 8.96 156.06 8.96 155.95 9.58 155.68 9.58 155.56 10.27 154.52 10.27 154.18 12.21 155.49 12.21 155.25 13.52 156.3 13.52 156.64 11.58 157.95 11.58 158.18 10.27 162.39 10.27 162.51 9.58 161.2 9.58"/><polygon points="163.32 10.89 163.2 11.58 164.51 11.58 164.28 12.89 166.9 12.89 167.37 10.27 166.05 10.27 166.28 8.96 165.24 8.96 164.9 10.89 163.32 10.89"/><polygon points="152.05 22.7 151.93 23.39 152.2 23.39 152.32 22.7 152.05 22.7"/><polygon points="176.94 9.58 177.17 8.27 172.97 8.27 172.84 8.96 171.8 8.96 171.69 9.58 171.42 9.58 171.3 10.27 170.26 10.27 168.53 20.08 169.84 20.08 169.61 21.39 170.65 21.39 172.38 11.58 173.69 11.58 173.92 10.27 178.13 10.27 178.25 9.58 176.94 9.58"/><polygon points="180.84 8.27 180.95 7.64 179.91 7.64 179.8 8.27 180.84 8.27"/><polygon points="167.8 22.7 167.68 23.39 167.95 23.39 168.07 22.7 167.8 22.7"/><polygon points="175.51 16.14 175.16 18.14 176.74 18.14 177.1 16.14 175.51 16.14"/><polygon points="179.06 10.89 178.94 11.58 180.25 11.58 180.02 12.89 182.65 12.89 183.11 10.27 181.8 10.27 182.03 8.96 180.99 8.96 180.65 10.89 179.06 10.89"/><polygon points="179.83 15.52 178.8 21.39 178.52 21.39 178.4 22.08 177.36 22.08 177.25 22.7 176.98 22.7 176.86 23.39 175.82 23.39 175.71 24.01 168.88 24.01 168.76 24.7 170.07 24.7 169.84 26.01 177.71 26.01 177.94 24.7 179.25 24.7 179.48 23.39 180.8 23.39 182.18 15.52 179.83 15.52"/><polygon points="183.54 22.7 183.42 23.39 183.69 23.39 183.81 22.7 183.54 22.7"/><polygon points="185.59 20.08 185.35 21.39 186.4 21.39 188.82 7.64 186.47 7.64 184.28 20.08 185.59 20.08"/><polygon points="194.54 21.39 194.27 21.39 194.15 22.08 193.11 22.08 193 22.7 192.72 22.7 192.6 23.39 191.56 23.39 191.45 24.01 184.62 24.01 184.5 24.7 185.81 24.7 185.58 26.01 193.45 26.01 193.68 24.7 195 24.7 195.23 23.39 196.54 23.39 199.31 7.64 196.96 7.64 194.54 21.39"/><polygon points="209.97 8.27 207.35 8.27 205.04 21.39 207.39 21.39 209.35 10.27 211.97 10.27 212.44 7.64 210.08 7.64 209.97 8.27"/><polygon points="201.68 24.01 201.32 26.01 209.2 26.01 209.66 23.39 207.31 23.39 207.2 24.01 201.68 24.01"/><polygon points="204.45 8.27 204.1 10.27 204.37 10.27 204.72 8.27 204.45 8.27"/><polygon points="219.85 10.27 225.37 10.27 225.49 9.58 224.18 9.58 224.41 8.27 217.85 8.27 215.53 21.39 217.89 21.39 219.85 10.27"/><polygon points="228.07 8.27 228.18 7.64 227.14 7.64 227.03 8.27 228.07 8.27"/><polygon points="229.03 10.27 229.26 8.96 228.22 8.96 226.03 21.39 225.76 21.39 225.64 22.08 224.59 22.08 224.48 22.7 224.21 22.7 224.09 23.39 223.05 23.39 222.94 24.01 214.8 24.01 214.45 26.01 224.94 26.01 225.17 24.7 226.48 24.7 226.72 23.39 228.03 23.39 230.34 10.27 229.03 10.27"/><polygon points="233.59 8.27 232.66 13.52 235.02 13.52 235.59 10.27 246.09 10.27 246.55 7.64 244.2 7.64 244.09 8.27 233.59 8.27"/><polygon points="232.2 16.14 231.28 21.39 233.63 21.39 234.2 18.14 242.07 18.14 242.54 15.52 240.18 15.52 240.07 16.14 232.2 16.14"/><polygon points="241.31 24.01 230.54 24.01 230.19 26.01 243.31 26.01 243.77 23.39 241.42 23.39 241.31 24.01"/><polygon points="259.56 8.27 259.67 7.64 258.63 7.64 258.52 8.27 259.56 8.27"/><polygon points="260.52 10.27 260.75 8.96 259.71 8.96 257.52 21.39 257.25 21.39 257.13 22.08 256.08 22.08 255.97 22.7 255.7 22.7 255.58 23.39 254.54 23.39 254.43 24.01 246.29 24.01 245.94 26.01 256.43 26.01 256.66 24.7 257.97 24.7 258.2 23.39 259.52 23.39 261.83 10.27 260.52 10.27"/><polygon points="251.33 10.27 256.85 10.27 256.98 9.58 255.66 9.58 255.9 8.27 249.33 8.27 247.02 21.39 249.37 21.39 251.33 10.27"/><polygon class="cls-2" points="18.53 7.64 18.88 5.64 16.25 5.64 16.02 6.96 14.71 6.96 14.48 8.27 13.17 8.27 12.71 10.89 15.06 10.89 15.33 10.89 14.98 12.89 13.48 21.39 10.86 21.39 10.39 24.01 12.74 24.01 18.27 24.01 18.38 23.39 18.73 21.39 18.46 21.39 16.1 21.39 18.53 7.64"/><polygon class="cls-2" points="36.82 15.52 37.17 13.52 26.68 13.52 26.21 16.14 28.57 16.14 36.71 16.14 36.82 15.52"/><path class="cls-2" d="M49.86,23.39,50,22.7H51.3l.11-.62.12-.69h1.31l.93-5.25H52.45l.34-1.93.13-.69h1.31L55,9l.12-.69H53.84L54,7.65,54.07,7H52.76L53,5.65H45.12L44.89,7H43.58l-.23,1.31H42l-.92,5.25h1.31L42,16.14H40.65l-.93,5.25H41L40.8,22.7h1.31l-.12.69-.11.62h7.87ZM45.47,9.58h.27L45.85,9,46,8.27h5.25L51,9.58H52.3l-.12.69-.34,1.94H50.52l-.23,1.31H45l.24-1.31H44l.35-1.94.12-.69Zm-2.89,10.5.34-1.94.12-.69h1.31l.23-1.31h5.25l-.23,1.31h1.31l-.12.69-.34,1.94H49.14l-.24,1.31H43.66l.23-1.31Z"/><path class="cls-2" d="M65.61,23.39l.12-.69H67l.11-.62.12-.69h1.31L70.78,9l.12-.69H69.59l.11-.62L69.82,7H68.51l.23-1.31H60.86L60.63,7H59.32l-.23,1.31H57.78L55.46,21.39h1.32l-.24,1.31h1.32l-.12.69-.11.62H65.5ZM61.21,9.58h.27L61.59,9l.12-.69H67l-.23,1.31H68l-.12.69-.11.62H65.19L65,12.21H63.64l-.23,1.31H62.1l-.23,1.31H60.56l-.23,1.31H59l1-5.87.12-.69Zm-2.89,10.5.23-1.31h2.62l.12-.63.12-.69h1.31l.11-.62.12-.69h1.31l.11-.62.12-.69H65.8l.11-.62.13-.69h1.31l-.59,3.31-.57,3.25H64.88l-.23,1.31H59.4l.23-1.31Z"/><path class="cls-2" d="M81.35,23.39l.12-.69h1.31l.11-.62.13-.69h1.31L86.52,9l.12-.69H85.33l.11-.62L85.56,7H84.25l.23-1.31H76.61L76.38,7H75.06l-.23,1.31H73.52L71.21,21.39h1.31l-.23,1.31H73.6l-.12.69-.11.62h7.87ZM77,9.58h.28L77.34,9l.12-.69h5.25l-.24,1.31h1.32l-.12.69-.11.62H80.93l-.23,1.32H79.39l-.23,1.31H77.84l-.23,1.31H76.3l-.23,1.31H74.76l1-5.87.12-.69Zm-2.89,10.5.23-1.31h2.63l.11-.63.12-.69h1.31l.11-.62.12-.69H80l.11-.62.12-.69h1.31l.11-.62.12-.69h1.31l-.58,3.31-.57,3.25H80.62l-.23,1.31H75.14l.24-1.31Z"/><polygon class="cls-2" points="99.8 15.52 100.15 13.52 89.65 13.52 89.19 16.14 91.54 16.14 99.69 16.14 99.8 15.52"/><polygon class="cls-2" points="118.24 7.64 118.59 5.64 115.97 5.64 115.51 8.27 114.19 8.27 113.96 9.58 112.65 9.58 112.42 10.89 110.84 10.89 109.8 10.89 109.91 10.27 110.03 9.58 109.76 9.58 108.72 9.58 108.95 8.27 107.64 8.27 107.75 7.64 108.1 5.64 105.47 5.64 102.23 24.01 104.59 24.01 104.86 24.01 106.94 12.21 108.25 12.21 108.02 13.52 109.33 13.52 109.21 14.21 108.87 16.14 111.22 16.14 111.5 16.14 111.96 13.52 113.27 13.52 113.38 12.89 113.5 12.21 114.54 12.21 114.81 12.21 114.23 15.52 112.73 24.01 115.08 24.01 115.36 24.01 118.24 7.64"/><polygon class="cls-2" points="128.63 8.27 131.25 8.27 131.36 7.64 131.71 5.64 123.84 5.64 123.38 8.27 125.73 8.27 126 8.27 125.65 10.27 123.69 21.39 121.07 21.39 120.6 24.01 122.96 24.01 128.48 24.01 128.59 23.39 128.94 21.39 128.67 21.39 126.31 21.39 128.63 8.27"/><polygon class="cls-2" points="144.33 23.39 144.45 22.7 145.49 22.7 145.76 22.7 145.87 22.08 145.99 21.39 147.03 21.39 147.31 21.39 148.11 16.83 148.23 16.14 147.96 16.14 146.92 16.14 147.03 15.52 147.15 14.83 145.84 14.83 146.07 13.52 140.55 13.52 139.51 13.52 139.74 12.21 138.43 12.21 138.77 10.27 138.89 9.58 139.93 9.58 140.2 9.58 140.31 8.96 140.44 8.27 141.48 8.27 145.68 8.27 145.45 9.58 146.76 9.58 146.64 10.27 146.53 10.89 147.57 10.89 149.16 10.89 149.5 8.96 149.62 8.27 149.35 8.27 148.31 8.27 148.42 7.64 148.54 6.96 147.23 6.96 147.46 5.64 139.59 5.64 139.35 6.96 138.04 6.96 137.81 8.27 136.5 8.27 135.57 13.52 136.89 13.52 136.65 14.83 137.7 14.83 137.97 14.83 137.84 15.52 137.74 16.14 138.78 16.14 144.29 16.14 144.06 17.45 145.38 17.45 145.25 18.14 144.91 20.08 143.6 20.08 143.37 21.39 139.16 21.39 138.12 21.39 138.23 20.77 138.35 20.08 137.04 20.08 137.27 18.77 134.65 18.77 134.19 21.39 135.5 21.39 135.27 22.7 136.31 22.7 136.58 22.7 136.46 23.39 136.35 24.01 137.39 24.01 144.22 24.01 144.33 23.39"/><polygon class="cls-2" points="160.07 23.39 160.19 22.7 161.24 22.7 161.51 22.7 161.62 22.08 161.74 21.39 162.78 21.39 163.05 21.39 163.85 16.83 163.98 16.14 163.71 16.14 162.66 16.14 162.77 15.52 162.9 14.83 161.58 14.83 161.81 13.52 156.3 13.52 155.25 13.52 155.49 12.21 154.18 12.21 154.52 10.27 154.64 9.58 155.68 9.58 155.95 9.58 156.06 8.96 156.18 8.27 157.22 8.27 161.43 8.27 161.2 9.58 162.51 9.58 162.39 10.27 162.28 10.89 163.32 10.89 164.9 10.89 165.24 8.96 165.37 8.27 165.09 8.27 164.05 8.27 164.16 7.64 164.28 6.96 162.97 6.96 163.2 5.64 155.33 5.64 155.1 6.96 153.79 6.96 153.56 8.27 152.24 8.27 151.32 13.52 152.63 13.52 152.4 14.83 153.44 14.83 153.71 14.83 153.59 15.52 153.48 16.14 154.52 16.14 160.04 16.14 159.81 17.45 161.12 17.45 161 18.14 160.66 20.08 159.35 20.08 159.12 21.39 154.91 21.39 153.87 21.39 153.98 20.77 154.1 20.08 152.79 20.08 153.02 18.77 150.39 18.77 149.93 21.39 151.24 21.39 151.01 22.7 152.05 22.7 152.32 22.7 152.2 23.39 152.09 24.01 153.13 24.01 159.97 24.01 160.07 23.39"/><polygon class="cls-2" points="175.82 23.39 175.94 22.7 176.98 22.7 177.25 22.7 177.36 22.08 177.48 21.39 178.52 21.39 178.8 21.39 179.83 15.52 180.18 13.52 173.62 13.52 173.16 16.14 175.51 16.14 177.1 16.14 176.74 18.14 176.4 20.08 175.09 20.08 174.86 21.39 170.65 21.39 169.61 21.39 169.84 20.08 168.53 20.08 170.26 10.27 170.38 9.58 171.42 9.58 171.69 9.58 171.8 8.96 171.92 8.27 172.97 8.27 177.17 8.27 176.94 9.58 178.25 9.58 178.13 10.27 178.02 10.89 179.06 10.89 180.65 10.89 180.99 8.96 181.11 8.27 180.84 8.27 179.8 8.27 179.91 7.64 180.03 6.96 178.72 6.96 178.95 5.64 171.07 5.64 170.84 6.96 169.53 6.96 169.3 8.27 167.99 8.27 165.68 21.39 166.99 21.39 166.76 22.7 167.8 22.7 168.07 22.7 167.95 23.39 167.84 24.01 168.88 24.01 175.71 24.01 175.82 23.39"/><polygon class="cls-2" points="191.56 23.39 191.68 22.7 192.72 22.7 193 22.7 193.11 22.08 193.23 21.39 194.27 21.39 194.54 21.39 196.96 7.64 197.31 5.64 194.69 5.64 192.15 20.08 190.83 20.08 190.6 21.39 186.4 21.39 185.35 21.39 185.59 20.08 184.28 20.08 186.47 7.64 186.82 5.64 184.19 5.64 181.42 21.39 182.73 21.39 182.5 22.7 183.54 22.7 183.81 22.7 183.69 23.39 183.58 24.01 184.62 24.01 191.45 24.01 191.56 23.39"/><polygon class="cls-2" points="207.35 8.27 209.97 8.27 210.08 7.64 210.44 5.64 202.56 5.64 202.1 8.27 204.45 8.27 204.72 8.27 204.37 10.27 202.41 21.39 199.79 21.39 199.32 24.01 201.68 24.01 207.2 24.01 207.31 23.39 207.66 21.39 207.39 21.39 205.04 21.39 207.35 8.27"/><path class="cls-2" d="M223.05,23.39l.12-.69h1.31l.11-.62.13-.69H226L228.22,9l.12-.69H227l.11-.62.12-.69H226l.23-1.31h-10.5L212.45,24h10.49Zm-5.2-15.12h6.56l-.24,1.31h1.32l-.12.69-1.73,9.81h-1.32l-.23,1.31h-6.56Z"/><polygon class="cls-2" points="241.42 23.39 241.77 21.39 233.63 21.39 231.28 21.39 232.2 16.14 240.07 16.14 240.18 15.52 240.54 13.52 235.02 13.52 232.66 13.52 233.59 8.27 244.09 8.27 244.2 7.64 244.55 5.64 231.43 5.64 228.19 24.01 230.54 24.01 241.31 24.01 241.42 23.39"/><path class="cls-2" d="M254.54,23.39l.12-.69H256l.11-.62.13-.69h1.31L259.71,9l.12-.69h-1.31l.11-.62.12-.69h-1.31l.23-1.31h-10.5L243.93,24h10.5ZM249.33,8.27h6.56l-.23,1.31H257l-.13.69-1.73,9.81h-1.31l-.23,1.31H247Z"/></g></g></svg>