<svg xmlns="http://www.w3.org/2000/svg" viewBox="0 0 109.81 107.36"><defs><style>.cls-1{fill:#93e9e6;}</style></defs><title>blob</title><g id="Layer_2" data-name="Layer 2"><g id="Layer_1-2" data-name="Layer 1"><path class="cls-1" d="M109.41,65.18a75.69,75.69,0,0,0-3.07-13.69A104.59,104.59,0,0,0,101.42,38,54.35,54.35,0,0,0,78.16,13.5C73.22,10.85,67.91,9,62.74,6.81c-4.79-2-9.5-4.3-14.55-5.55C38.83-1,28.2.09,18.87,2.49c-6,2-10.28,3.77-14.79,8.31-2.18,2.2-4,5-4.07,8.12a12.2,12.2,0,0,0,1.44,5.79C7.17,36.37,21.88,40.21,31,49.43S43,72.47,46.51,85.11c1.2,4.29,2.6,8.64,5.28,12.22,3.73,5,9.66,8,15.76,9.23s12.42.85,18.59.09C86.14,106.65,113.45,99.37,109.41,65.18Z"/></g></g></svg>