<svg xmlns="http://www.w3.org/2000/svg" viewBox="0 0 90 90"><title>grid</title><g id="Layer_2" data-name="Layer 2"><g id="Layer_1-2" data-name="Layer 1" fill="white"><path d="M90,89.29,85.31,84.6,90,79.9V78l-4.69-4.69L90,68.59V66.67L85.31,62,90,57.28V55.35l-4.69-4.69L90,46V44l-4.69-4.7L90,34.65V32.72L85.31,28,90,23.33V21.41l-4.69-4.7L90,12V10.1L85.31,5.4,90,.71V0h-.71L84.6,4.69,79.9,0H78l-4.7,4.69L68.59,0H66.67L62,4.69,57.28,0H55.35L50.66,4.69,46,0H44l-4.7,4.69L34.65,0H32.72L28,4.69,23.33,0H21.41L16.72,4.69,12,0H10.1L5.4,4.69.71,0H0V.71L4.7,5.4,0,10.1V12l4.69,4.7L0,21.41v1.92L4.69,28,0,32.72v1.93l4.69,4.69L0,44V46l4.69,4.7L0,55.35v1.93L4.69,62,0,66.67v1.92l4.69,4.69L0,78V79.9l4.7,4.7L0,89.29V90H.71L5.4,85.31,10.1,90H12l4.7-4.69L21.41,90h1.92L28,85.31,32.72,90h1.93l4.69-4.69L44,90H46l4.7-4.7L55.35,90h1.93L62,85.31,66.67,90h1.92l4.69-4.69L78,90H79.9l4.7-4.69L89.29,90H90Zm-.45-21.66-5,5-4.95-5,4.95-4.95Zm-62.23-17-4.95,5-4.95-5,4.95-4.95Zm-9.9-11.32,4.95-5,4.95,5-4.95,4.95ZM23.08,45l5-5L33,45,28,50Zm5.66-5.66,4.95-5,5,5-5,4.95Zm4.95,6.37,5,4.95-5,5-4.95-5Zm.7-.71,5-5,4.95,5-4.95,5Zm5.66-5.66,5-5,5,5-5,4.95Zm5,6.37,5,4.95-5,5-5-5Zm.71-.71,4.95-5,4.94,5-4.94,5Zm5.65-5.66,5-5,4.95,5-4.95,4.95Zm5,6.37,4.95,4.95-4.95,5-5-5ZM57,45l4.95-5,5,5-5,5Zm5.66-5.66,4.95-5,5,5-5,4.95Zm4.95,6.37,5,4.95-5,5-4.95-5Zm.7-.71,5-5,5,5-5,5Zm0-11.31,5-4.95,5,4.95-5,5Zm-.7-.71L62.68,28l4.95-5,5,5Zm-.71.71-5,5-4.95-5L62,28.74ZM56.31,33l-5-4.95,5-5,4.95,5Zm-.7.71-5,5-4.95-5,4.95-4.95ZM45,33l-5-4.95,5-5,5,5Zm-.71.71-4.95,5-5-5,5-4.95ZM33.69,33,28.74,28l4.95-5,5,5Zm-.71.71-4.95,5-5-5,5-4.95ZM22.37,33,17.42,28l4.95-5,4.95,5Zm-.7.71-5,5-4.95-5,4.95-4.95Zm0,11.31-5,5-5-5,5-5Zm0,11.31-5,4.95-4.95-4.95,4.95-5Zm.7.71L27.32,62l-4.95,5-4.95-5Zm.71-.71,5-5,4.95,5L28,61.26ZM33.69,57l5,4.95-5,5-4.95-5Zm.7-.71,5-5,4.95,5-4.95,4.95ZM45,57,50,62l-5,5-5-5Zm.71-.71,4.95-5,5,5-5,4.95Zm10.6.71L61.26,62l-4.95,5-5-5Zm.71-.71,4.95-5,5,5-5,4.95ZM67.63,57,72.57,62l-4.94,5-4.95-5Zm.7-.71,5-5,5,5-5,4.95ZM78.94,57l5,4.95-5,5-5-5Zm-5-6.36,5-4.95,5,4.95-5,5Zm0-11.32,5-5,5,5-5,4.95ZM74,28l5-5,5,5-5,4.95Zm0-11.31,5-4.95,5,4.94-5,4.95Zm4.24,5.65-5,4.95-5-4.95,5-4.95Zm-10.6-.7-4.95-5,4.95-4.95,5,4.95Zm-.71.7-5,4.95L57,22.37,62,17.42Zm-10.61-.7-5-5,5-4.95,4.95,4.95Zm-.7.7-5,4.95-4.95-4.95,4.95-4.95ZM45,21.67l-5-5,5-4.95,5,4.95Zm-.71.7-4.95,4.95-5-4.95,5-4.95Zm-10.6-.7-4.95-5,4.95-4.95,5,4.95Zm-.71.7L28,27.32l-5-4.95,5-4.95Zm-10.61-.7-4.95-5,4.95-4.95,4.95,4.95Zm-.7.7-5,4.95-4.95-4.95,4.95-4.95Zm-10.61-.7-4.95-5,5-5,5,5ZM16,28l-5,4.95L6.11,28l5-5Zm0,11.31-5,4.95L6.11,39.34l5-5Zm0,11.32-5,5-4.95-5,5-4.95ZM16,62l-5,5L6.11,62l5-4.95Zm0,11.32-5,4.95-4.95-5,5-5Zm-4.24-5.66,4.95-4.95,5,4.95-5,5Zm10.6.71,4.95,4.94-4.95,5-4.95-5Zm.71-.71,5-4.95L33,67.63l-4.95,5Zm10.61.7,5,5-5,5-4.95-5Zm.7-.7,5-4.95,4.95,4.95-4.95,5Zm10.61.7,5,5-5,5-5-5Zm.71-.7,4.95-4.95,5,4.95-5,5Zm10.6.7,4.95,5-4.95,5-5-5Zm.71-.7L62,62.68l5,4.95-5,5Zm10.61.7,5,5-5,4.94-4.95-5Zm.7-.7,5-4.95,5,4.95-5,5Zm10.61.71,5,5-5,4.94-5-5Zm10.61-12-5,4.95-4.95-4.95,4.95-5Zm0-11.31-5,5-4.95-5,4.95-5Zm0-11.31-5,5-4.95-5,4.95-4.95Zm0-11.32-5,4.95-4.95-4.95,4.95-4.95Zm0-11.31-5,5-4.95-5L84.6,6.11ZM78.94.45l5,5-5,4.95L74,5.4Zm-.71,10.61-5,5-5-5,5-4.95ZM67.63.45l5,5-5,4.95L62.68,5.4Zm-.71,10.61-5,5-4.95-5L62,6.11ZM56.31.45l4.95,5-4.95,4.95-5-4.95Zm-.7,10.61-5,5-4.95-5,4.95-4.95ZM45,.45l5,5-5,4.95-5-4.95Zm-.71,10.61-4.95,5-5-5,5-4.95ZM33.69.45l5,5-5,4.95L28.74,5.4ZM33,11.06,28,16l-5-5,5-4.95ZM22.37.45l4.95,5-4.95,4.95L17.42,5.4Zm-.7,10.61-5,5-4.95-5,4.95-4.95ZM11.06.45l5,5-5,4.95L6.11,5.4ZM.45,11.06l5-4.95,4.95,5L5.4,16Zm0,11.31,5-4.95,4.95,4.95L5.4,27.32Zm0,11.32,5-4.95,4.95,4.95-4.95,5ZM.45,45l5-5,4.95,5L5.4,50Zm0,11.31,5-5,4.95,5L5.4,61.26Zm0,11.32,5-4.95,4.95,4.95-4.95,5Zm0,11.31,5-5,4.95,5-4.95,5ZM11.06,89.55l-4.95-5,5-4.95,5,4.95Zm.71-10.61,4.95-5,4.94,5-4.94,5Zm10.6,10.61-4.95-5,4.95-4.95,4.95,4.95Zm.71-10.61,5-5,4.95,5-4.95,5ZM33.69,89.55l-4.95-5,4.95-4.95,5,4.95Zm.7-10.61,5-5,4.95,5-4.95,5ZM45,89.55l-5-5,5-4.95,5,4.95Zm.71-10.61,4.95-5,5,5-5,5Zm10.6,10.61-5-5,5-4.95,4.95,4.95ZM57,78.94,62,74l5,5-5,5ZM67.63,89.55l-4.95-5,4.95-4.95,5,4.95Zm.7-10.61,5-5,5,5-5,5ZM78.94,89.55l-5-5,5-4.95,5,4.95Zm.71-10.61,4.95-5,4.94,5-4.94,5Z"/></g></g></svg>