<svg xmlns="http://www.w3.org/2000/svg" viewBox="0 0 1374.17 187.66"><defs><style>.cls-1{isolation:isolate;}.cls-2{fill:#ffcbe8;}.cls-3{fill:#fff;}</style></defs><title>knowme</title><g id="Layer_2" data-name="Layer 2"><g id="Layer_3" data-name="Layer 3"><g class="cls-1"><path class="cls-2" d="M36.69,119.35,55.36,144h0Z"/><path class="cls-2" d="M56.94,133.87,35.22,105.18l21.72,28.7h0Z"/><path class="cls-3" d="M103.17,80.3l24.6,32.49a25.46,25.46,0,0,0-1.75-2c-6-6.33-13.07-9.78-23.82-11.57a97.89,97.89,0,0,0-19.35-1C65,99.17,51,104.05,41.19,112.73a42.41,42.41,0,0,0-13.95,24.86,45.08,45.08,0,0,0-.66,8.75c.15,9.29,2.73,17.31,7.54,23.66L9.52,137.5C4.71,131.15,2.13,123.13,2,113.84a45.08,45.08,0,0,1,.66-8.75,42.41,42.41,0,0,1,14-24.86c9.83-8.68,23.85-13.56,41.66-14.49a97.89,97.89,0,0,1,19.35,1c10.75,1.79,17.87,5.24,23.82,11.57A22.16,22.16,0,0,1,103.17,80.3Z"/><path class="cls-2" d="M55.72,138.85,34,110.16l21.72,28.7h0Z"/><path class="cls-2" d="M80.72,111.07,59,82.38h0l2.5,3.31,2.64,3.49,2.74,3.62,2.8,3.7,5.63,7.44,2.75,3.63Z"/><path class="cls-2" d="M83.59,114.87,59,82.37c5.83-.31,10.76.74,14.92,3.19l12.3,16.25,1.61,2.13,1.61,2.12L91,108.17l1.57,2.07,1.54,2,1.51,2,1.46,1.93,1.41,1.87q-12.3-16.25-24.59-32.5h0a22.74,22.74,0,0,1,3.91,2.92l24.6,32.5C97.55,116.47,91.38,114.46,83.59,114.87Zm-5-19.29,1,1.32,1,1.33,1,1.33,1,1.33,1,1.33,1,1.33,1,1.32,1,1.31,1,1.3,1,1.29,1,1.27,1,1.25.93,1.23.91,1.21.9,1.19.88,1.15h0l-.87-1.16-.9-1.18-.91-1.21-.93-1.23-1-1.25-1-1.27-1-1.29-1-1.3-1-1.31-1-1.32-1-1.33-1-1.33-1-1.33-1-1.33-1-1.33-1-1.32-.6-.8L77.39,94l-.6-.79-.59-.78-.58-.77L75,90.89l-.57-.77-.58-.76-.57-.75-.56-.74-.56-.74-.55-.73-.54-.72L70.56,85l-.53-.7-.52-.69.52.69.53.7.54.71.54.72.55.73.56.74.56.74.57.75.58.76.57.77.59.77.58.77.59.78.6.79.59.78.6.8m-5-1.07,1,1.33,1,1.33,1,1.33,1,1.33,1,1.33,1,1.33,1,1.32,1,1.31,1,1.3,1,1.29,1,1.27,1,1.25.93,1.23.92,1.21.89,1.18.88,1.16h0l-.88-1.16-.89-1.18-.92-1.21-.93-1.23-1-1.26-1-1.27-1-1.28-1-1.3-1-1.31-1-1.32-1-1.33-1-1.33-1-1.33-1-1.33-1-1.33-1-1.33-.6-.79-.6-.78-.59-.79-.59-.78-.59-.77-.58-.77-.58-.77-.57-.76-.57-.75-.57-.74-.55-.74-.56-.73-.54-.72-.54-.71-.53-.7-.52-.69.52.69.53.7.54.71.54.72.56.73.55.74.57.74.57.75.57.76.58.77.58.77.59.77.59.78.59.79.6.78.6.79"/><polygon class="cls-3" points="77.11 90.56 101.71 123.06 101.37 122.73 76.78 90.23 77.11 90.56"/><path class="cls-2" d="M56,149.81a23.19,23.19,0,0,0,4.14,9.35l-24.6-32.5a25.33,25.33,0,0,1-4.76-15.14,29.59,29.59,0,0,1,6.38-18.93c5-6.2,12.6-9.74,21.85-10.22h0l5.14,6.79,5.54,7.32q7,9.2,13.91,18.38h0a36.32,36.32,0,0,0-6.6.93L52.39,83.3h0l1.77,2.34.92,1.21,4.8,6.34L77,115.8a30.17,30.17,0,0,0-5.9,2L46.49,85.34h0l1,1.39c.21.29.5.67.72,1l.73,1,.37.49,21.72,28.69a26.39,26.39,0,0,0-9.36,7.26A27.11,27.11,0,0,0,59,129.23L34.37,96.74,59,129.23a29.21,29.21,0,0,0-2,4.65l-24.59-32.5,24.59,32.49h0a31,31,0,0,0-1.22,5L31.13,106.37q12.3,16.25,24.59,32.48h0a30.66,30.66,0,0,0-.36,5.16h0Q46,131.67,36.69,119.35l-5.92-7.82L55.36,144a30.66,30.66,0,0,0,.62,5.79l-24.59-32.5,1,1.39,1.08,1.43,1.11,1.47,1.13,1.49,1.16,1.53,1.17,1.54,1.18,1.57,1.2,1.58,8,10.6,2,2.59L52.36,145l.93,1.24,1.82,2.39A7.47,7.47,0,0,1,56,149.81ZM41.38,88.45h0l.88,1.16.9,1.18L44.07,92,45,93.23l1,1.25,1,1.28,1,1.28,1,1.3,1,1.31,1,1.32,1,1.33,1,1.33,1,1.33,1,1.33,1,1.33,1,1.32.6.8.59.78.6.79.59.78.58.77.59.77.57.77.58.76.57.75.56.74.56.74.55.73.54.72.54.71.53.7.53.69-.53-.69-.53-.7-.54-.71-.54-.72-.55-.73-.56-.74-.56-.74-.57-.75L61,114.4l-.57-.77-.59-.77-.58-.77-.59-.78-.6-.79-.59-.78-.6-.8-1-1.32-1-1.33-1-1.33-1-1.33-1-1.33-1-1.33-1-1.32-1-1.31-1-1.3-1-1.29-1-1.27-1-1.25L44.07,92l-.91-1.21-.9-1.19-.88-1.15M37.14,92.6h0L38,93.76l.9,1.18.92,1.21.93,1.23,1,1.25,1,1.27,1,1.29,1,1.3,1,1.31,1,1.32,1,1.33,1,1.33,1,1.33,1,1.33,1,1.33,1,1.33.6.79.6.78.59.79.59.78.59.77.58.77.58.77.57.76.57.75.57.74.55.74.55.73.55.72.54.71.53.7.52.69-.52-.69-.53-.7-.54-.71-.55-.72-.55-.73-.55-.74-.57-.74-.57-.75-.57-.76-.58-.77-.58-.77-.59-.77-.59-.78-.59-.79-.6-.78-.6-.79-1-1.33-1-1.33-1-1.33-1-1.33-1-1.33-1-1.33-1-1.32-1-1.31-1-1.3-1-1.29-1-1.27-.94-1.25-.94-1.23-.91-1.21L38,93.75l-.87-1.15M33,122.45h0l.88,1.15.9,1.19.91,1.21.93,1.23,1,1.25,1,1.27,1,1.29,1,1.3,1,1.31,1,1.32,1,1.32,1,1.34,1,1.33,1,1.33,1,1.33,1,1.32.6.79.59.79.6.79.59.78.58.77.59.77.57.77.58.75.57.76.56.74.56.74.55.73.54.72.54.71.53.7.52.69-.52-.69-.53-.7-.54-.71-.54-.72-.55-.73-.56-.74-.56-.74-.57-.76-.58-.75-.57-.77-.59-.77-.58-.77-.59-.78-.6-.79-.59-.79-.6-.79-1-1.32-1-1.33-1-1.33-1-1.33-1-1.34-1-1.32-1-1.32-1-1.31-1-1.3-1-1.29-1-1.27-1-1.25L35.72,126l-.92-1.21-.89-1.19L33,122.45"/><path class="cls-3" d="M61.66,157.89l-24.6-32.5c-2.58-3.41-4.23-8-4.33-14-.21-12.8,7.85-26.14,26.3-27.1,7.51-.4,13.14,1.49,17.75,5.91l24.59,32.5c-4.6-4.42-10.24-6.31-17.75-5.91-18.44,1-26.5,14.3-26.29,27.1C57.43,149.9,59.07,154.47,61.66,157.89Z"/><path class="cls-2" d="M41.25,177a34.71,34.71,0,0,1-7.13-7L9.52,137.51a35.17,35.17,0,0,0,7.13,7h0L41.25,177Z"/><path class="cls-2" d="M127.77,112.79a24.93,24.93,0,0,1,2.34,3.89l-24.6-32.5a24.18,24.18,0,0,0-2.34-3.89Z"/><polygon class="cls-2" points="105.51 84.18 130.11 116.68 102.43 120.98 77.83 88.48 105.51 84.18"/><path class="cls-3" d="M104.75,79.07l24.6,32.5a28.15,28.15,0,0,1,2.77,4.67l-24.59-32.5A29,29,0,0,0,104.75,79.07Z"/><polygon class="cls-3" points="61.14 102.47 85.74 134.97 86.01 151.74 61.41 119.24 61.14 102.47"/><polygon class="cls-3" points="107.53 83.74 132.12 116.24 133.12 118.17 108.52 85.67 107.53 83.74"/><polygon class="cls-3" points="108.52 85.67 133.12 118.17 101.71 123.06 77.11 90.56 108.52 85.67"/><polygon class="cls-3" points="108.87 99.97 133.47 132.47 85.74 134.97 61.14 102.47 108.87 99.97"/><polygon class="cls-2" points="83.45 118.08 108.05 150.58 86.01 151.74 61.41 119.24 83.45 118.08"/><polygon class="cls-3" points="80.92 120.17 105.52 152.66 84.06 153.79 59.47 121.29 80.92 120.17"/><polygon class="cls-3" points="83.45 118.08 108.05 150.58 107.78 151.79 83.18 119.29 83.45 118.08"/><path class="cls-3" d="M60.12,159.16l-24.6-32.5a20.65,20.65,0,0,0,3.76,3.83c4.81,3.79,11.49,5.66,18.81,5.27,12.22-.64,23.24-7.87,25.09-16.47l24.6,32.5c-1.85,8.6-12.87,15.83-25.1,16.47-7.31.39-14-1.48-18.8-5.27A20.65,20.65,0,0,1,60.12,159.16Z"/><polygon class="cls-2" points="85.65 138.38 110.25 170.88 108.61 172.47 84.02 139.97 85.65 138.38"/><path class="cls-2" d="M74,185.62c-12.71.67-24.32-2.38-32.72-8.59l-24.6-32.5c8.4,6.21,20,9.26,32.72,8.59,17.38-.91,25.79-6.44,29-8.52l24.6,32.5C99.76,179.18,91.35,184.71,74,185.62Z"/><path class="cls-2" d="M84,140l24.59,32.5a33.6,33.6,0,0,1-5.68,4.63l-24.6-32.5A34.21,34.21,0,0,0,84,140Z"/><path class="cls-3" d="M32.45,171.08l-24.6-32.5c9.29,12.27,25.51,17.33,41.55,16.49s24.8-5.45,30-8.87a38.35,38.35,0,0,0,4.36-3.32l24.6,32.5A39.3,39.3,0,0,1,104,178.7c-5.19,3.42-13.92,8-30,8.87S41.74,183.35,32.45,171.08Z"/><polygon class="cls-3" points="85.65 138.38 110.25 170.88 110.42 181.25 85.82 148.76 85.65 138.38"/><path class="cls-2" d="M58.25,65.74a97.89,97.89,0,0,1,19.35,1c10.75,1.79,17.87,5.24,23.82,11.57a21.81,21.81,0,0,1,4.09,5.92l-27.68,4.3C73,84,66.78,82,59,82.37c-9.25.48-16.8,4-21.85,10.22a29.59,29.59,0,0,0-6.38,18.93c.13,8.12,3.08,14.69,8.52,19,4.81,3.79,11.49,5.66,18.81,5.27,12.22-.64,23.24-7.87,25.09-16.47l.27-1.21-22,1.16-.27-16.77,47.73-2.5.78,47.54-23.83,1.25-.17-10.38L84,140a34.21,34.21,0,0,1-5.69,4.63c-3.17,2.08-11.58,7.61-29,8.52-12.71.67-24.32-2.38-32.72-8.59C7.27,137.59,2.19,127,2,113.84a45.08,45.08,0,0,1,.66-8.75,42.41,42.41,0,0,1,14-24.86C26.42,71.55,40.44,66.67,58.25,65.74Z"/><polygon class="cls-2" points="108.87 99.97 133.47 132.47 134.25 180.01 109.65 147.51 108.87 99.97"/><polygon class="cls-2" points="109.65 147.51 134.25 180.01 110.42 181.25 85.82 148.76 109.65 147.51"/><polygon class="cls-3" points="111.65 149.35 136.25 181.85 108.48 183.31 83.88 150.81 111.65 149.35"/><polygon class="cls-3" points="110.81 97.92 135.41 130.42 136.25 181.85 111.65 149.35 110.81 97.92"/><path class="cls-3" d="M59.13,100.63l51.68-2.71.84,51.43-27.77,1.46-.13-7.93a38.35,38.35,0,0,1-4.36,3.32c-5.19,3.42-13.91,8-30,8.87C25.16,156.34.5,144.12,0,114a46.52,46.52,0,0,1,.69-9.13,44.46,44.46,0,0,1,14.6-26c10.2-9,24.63-14,42.92-15a99.12,99.12,0,0,1,19.76,1c11.21,1.85,18.66,5.48,24.9,12.12a25.07,25.07,0,0,1,4.65,6.85l1,1.94L77.11,90.56l-.33-.33C72.17,85.81,66.54,83.92,59,84.32c-18.45,1-26.51,14.3-26.3,27.1.29,17.49,13.83,23,25.32,22.4,10.74-.57,20.46-6.45,22.87-13.65l-21.45,1.12Zm50.52,46.88L108.87,100l-47.73,2.5.27,16.77,22-1.16-.27,1.21c-1.85,8.6-12.87,15.83-25.09,16.47-7.32.39-14-1.48-18.81-5.27-5.44-4.28-8.39-10.85-8.52-19a29.59,29.59,0,0,1,6.38-18.93c5-6.2,12.6-9.74,21.85-10.22C66.78,82,73,84,77.83,88.48l27.68-4.3a21.81,21.81,0,0,0-4.09-5.92c-6-6.33-13.07-9.78-23.82-11.57a97.89,97.89,0,0,0-19.35-1c-17.81.93-31.83,5.81-41.66,14.49A42.41,42.41,0,0,0,2.64,105.09,45.08,45.08,0,0,0,2,113.84c.21,13.15,5.29,23.75,14.67,30.69,8.4,6.21,20,9.26,32.72,8.59,17.38-.91,25.79-6.44,29-8.52A34.21,34.21,0,0,0,84,140l1.63-1.59.17,10.38,23.83-1.25"/></g><g class="cls-1"><polygon class="cls-3" points="214.39 61.31 238.99 93.81 152.9 98.32 128.3 65.82 214.39 61.31"/><polygon class="cls-2" points="156.54 81.01 181.14 113.51 181.39 128.91 156.79 96.41 156.54 81.01"/><polygon class="cls-2" points="214.66 77.96 239.26 110.46 181.14 113.51 156.54 81.01 214.66 77.96"/><polygon class="cls-3" points="158.55 82.85 183.15 115.35 183.34 126.85 158.74 94.35 158.55 82.85"/><polygon class="cls-2" points="214.39 61.31 238.99 93.81 239.26 110.46 214.66 77.96 214.39 61.31"/><polygon class="cls-3" points="216.66 79.81 241.26 112.31 183.15 115.35 158.55 82.85 216.66 79.81"/><polygon class="cls-3" points="216.33 59.26 240.93 91.76 241.26 112.31 216.66 79.81 216.33 59.26"/><polygon class="cls-3" points="128.3 65.82 152.9 98.32 154.21 178.96 129.61 146.46 128.3 65.82"/><polygon class="cls-2" points="156.95 113.18 181.55 145.68 181.79 160.73 157.19 128.23 156.95 113.18"/><polygon class="cls-3" points="210.53 93.59 235.12 126.09 181.39 128.91 156.79 96.41 210.53 93.59"/><polygon class="cls-2" points="210.8 110.36 235.4 142.86 181.55 145.68 156.95 113.18 210.8 110.36"/><polygon class="cls-3" points="158.95 115.02 183.55 147.52 183.73 158.67 159.13 126.17 158.95 115.02"/><polygon class="cls-2" points="210.53 93.59 235.12 126.09 235.4 142.86 210.8 110.36 210.53 93.59"/><polygon class="cls-3" points="212.47 91.54 237.07 124.04 237.41 144.7 212.81 112.2 212.47 91.54"/><polygon class="cls-3" points="212.81 112.2 237.41 144.7 183.55 147.52 158.95 115.02 212.81 112.2"/><polygon class="cls-3" points="216.61 125.12 241.21 157.62 181.79 160.73 157.19 128.23 216.61 125.12"/><polygon class="cls-2" points="216.61 125.12 241.21 157.62 241.48 174.39 216.88 141.89 216.61 125.12"/><polygon class="cls-2" points="216.88 141.89 241.48 174.39 154.21 178.96 129.61 146.46 216.88 141.89"/><path class="cls-3" d="M159.13,126.17l59.42-3.11.33,20.67-91.21,4.78L126.3,64l90-4.72.33,20.55-58.11,3,.19,11.5,53.73-2.81.34,20.66L159,115Zm57.75,15.72-.27-16.77-59.42,3.11-.24-15,53.85-2.82-.27-16.77L156.79,96.4,156.54,81,214.66,78l-.27-16.65L128.3,65.82l1.31,80.64,87.27-4.57"/><polygon class="cls-2" points="214.39 61.31 214.66 77.96 156.54 81.01 156.79 96.41 210.53 93.59 210.8 110.36 156.95 113.18 157.19 128.23 216.61 125.12 216.88 141.89 129.61 146.46 128.3 65.82 214.39 61.31"/><polygon class="cls-3" points="218.88 143.73 243.48 176.23 152.27 181.01 127.67 148.51 218.88 143.73"/><polygon class="cls-3" points="218.55 123.06 243.15 155.56 243.48 176.23 218.88 143.73 218.55 123.06"/></g><g class="cls-1"><polygon class="cls-3" points="223.23 60.73 247.83 93.23 248.1 109.88 223.5 77.38 223.23 60.73"/><polygon class="cls-3" points="310.73 56.15 335.33 88.64 247.83 93.23 223.23 60.73 310.73 56.15"/><polygon class="cls-2" points="253.2 75.82 277.8 108.32 248.1 109.88 223.5 77.38 253.2 75.82"/><polygon class="cls-3" points="251.26 77.88 275.86 110.38 246.16 111.93 221.56 79.44 251.26 77.88"/><polygon class="cls-2" points="310.73 56.15 335.33 88.64 335.6 105.29 311 72.79 310.73 56.15"/><polygon class="cls-2" points="311 72.79 335.6 105.29 306.01 106.84 281.41 74.34 311 72.79"/><polygon class="cls-3" points="312.67 54.09 337.27 86.58 337.6 107.14 313 74.64 312.67 54.09"/><polygon class="cls-3" points="313 74.64 337.6 107.14 308.01 108.69 283.42 76.19 313 74.64"/><polygon class="cls-3" points="253.2 75.82 277.8 108.32 278.84 172.43 254.24 139.93 253.2 75.82"/><polygon class="cls-2" points="282.46 138.45 307.05 170.95 278.84 172.43 254.24 139.93 282.46 138.45"/><polygon class="cls-2" points="281.41 74.34 306.01 106.84 307.05 170.95 282.46 138.45 281.41 74.34"/><path class="cls-3" d="M221.23,58.88l91.44-4.79L313,74.64l-29.58,1.55,1,64.1L252.31,142l-1.05-64.1-29.7,1.55ZM311,72.79l-.27-16.64-87.5,4.58.27,16.64,29.7-1.55,1,64.11,28.22-1.48-1-64.11L311,72.79"/><polygon class="cls-2" points="310.73 56.15 311 72.79 281.41 74.34 282.46 138.45 254.24 139.93 253.2 75.82 223.5 77.38 223.23 60.73 310.73 56.15"/><polygon class="cls-3" points="283.42 76.19 308.01 108.69 309.06 172.79 284.46 140.29 283.42 76.19"/><polygon class="cls-3" points="284.46 140.29 309.06 172.79 276.9 174.48 252.31 141.98 284.46 140.29"/></g><g class="cls-1"><polygon class="cls-3" points="358.87 53.62 383.47 86.12 383.74 102.77 359.14 70.27 358.87 53.62"/><polygon class="cls-3" points="446.37 49.04 470.97 81.54 383.47 86.12 358.87 53.62 446.37 49.04"/><polygon class="cls-2" points="388.84 68.71 413.44 101.21 383.74 102.77 359.14 70.27 388.84 68.71"/><polygon class="cls-3" points="386.9 70.77 411.5 103.27 381.79 104.83 357.19 72.33 386.9 70.77"/><polygon class="cls-2" points="446.64 65.68 471.24 98.18 441.65 99.73 417.05 67.23 446.64 65.68"/><polygon class="cls-2" points="446.37 49.04 470.97 81.54 471.24 98.18 446.64 65.68 446.37 49.04"/><polygon class="cls-3" points="448.31 46.98 472.91 79.48 473.24 100.03 448.64 67.53 448.31 46.98"/><polygon class="cls-3" points="448.64 67.53 473.24 100.03 443.65 101.58 419.06 69.08 448.64 67.53"/><polygon class="cls-3" points="388.84 68.71 413.44 101.21 414.48 165.32 389.88 132.82 388.84 68.71"/><path class="cls-3" d="M549.65,59l24.6,32.5a37.09,37.09,0,0,0-17.89-12.65c-8-2.77-17.55-3.82-29.28-3.21-.52,0-1,.07-1.54.09-21.83,1.5-36.65,8.46-45.29,21.28a44.45,44.45,0,0,0-7.11,25.69c.15,9.19,2.5,16.53,7.39,23l-24.6-32.5c-4.88-6.45-7.24-13.79-7.39-23a44.45,44.45,0,0,1,7.11-25.69c8.64-12.82,23.46-19.78,45.29-21.28.52,0,1-.06,1.54-.09,11.73-.61,21.33.44,29.28,3.21A37.09,37.09,0,0,1,549.65,59Z"/><path class="cls-2" d="M508,101.2l-24.6-32.5c.44-.55.9-1.08,1.38-1.58,4.43-4.62,10.42-7.15,17.8-7.54H503a32.53,32.53,0,0,1,6.57.35l24.59,32.5a32.45,32.45,0,0,0-6.57-.35h-.39c-7.37.39-13.36,2.92-17.79,7.54C508.92,100.12,508.46,100.65,508,101.2Z"/><polygon class="cls-2" points="418.1 131.34 442.69 163.84 414.48 165.32 389.88 132.82 418.1 131.34"/><polygon class="cls-2" points="417.05 67.23 441.65 99.73 442.69 163.84 418.1 131.34 417.05 67.23"/><polygon class="cls-2" points="446.37 49.04 446.64 65.68 417.05 67.23 418.1 131.34 389.88 132.82 388.84 68.71 359.14 70.27 358.87 53.62 446.37 49.04"/><polygon class="cls-3" points="420.1 133.19 444.7 165.69 412.54 167.37 387.95 134.87 420.1 133.19"/><polygon class="cls-3" points="419.06 69.08 443.65 101.58 444.7 165.69 420.1 133.19 419.06 69.08"/><path class="cls-3" d="M356.86,51.77,448.31,47l.33,20.55-29.58,1.55,1,64.11L388,134.87l-1.05-64.1-29.71,1.56Zm89.78,13.91L446.37,49l-87.5,4.58.27,16.65,29.7-1.56,1.05,64.11,28.21-1.48-1.05-64.11,29.59-1.55"/><path class="cls-2" d="M544.56,96.87a21.78,21.78,0,0,0-10.41-4.45l-24.59-32.5A21.79,21.79,0,0,1,520,64.37Z"/><path class="cls-2" d="M544.56,96.87a2,2,0,0,1-.21-.28l-.13-.17-.34-.45q-12-15.81-23.92-31.6l.06,0,2.88,3.8,3,4c.95,1.25,2.22,2.92,3.16,4.18s2.26,3,3.22,4.25,2.26,3,3.22,4.25l3.16,4.18,5.92,7.82Z"/><path class="cls-2" d="M544.81,97.08l-.19-.16L520,64.42l.2.16Z"/><path class="cls-2" d="M544.81,97.08l-.25-.34-.14-.18-.7-.93-.57-.75-.52-.69L540,90.73l-2.78-3.67-2.88-3.8-2.93-3.88-11.21-14.8a20.09,20.09,0,0,1,3.3,3.46l24.6,32.5A20.87,20.87,0,0,0,544.81,97.08Z"/><path class="cls-3" d="M522.31,69.68l24.6,32.5c-6.14-8.12-16.57-8.27-19.32-8.16L503,61.52C505.74,61.41,516.17,61.56,522.31,69.68Z"/><path class="cls-2" d="M501.93,120.26h0c.1,5.84,1.7,12.06,5.37,16.9l-24.6-32.49c-3.67-4.85-5.27-11.07-5.37-16.91a29.85,29.85,0,0,1,6.09-19.06L508,101.2A29.79,29.79,0,0,0,501.93,120.26Z"/><path class="cls-3" d="M508.6,135.77,484,103.27c-2.8-3.69-4.59-8.8-4.7-15.61-.06-3.55.5-12.53,6.91-19.22,4-4.22,9.54-6.54,16.35-6.9l.43,0L527.59,94l-.44,0c-6.81.35-12.3,2.68-16.34,6.9-6.41,6.69-7,15.67-6.91,19.22C504,127,505.8,132.07,508.6,135.77Z"/><path class="cls-3" d="M523.51,68l24.6,32.5.37.51c4.38,6.15,5,13.59,5,16.51.14,8.75-3.09,20-12.57,25.19-3.24,1.83-7.21,2.82-12.48,3.09-10.21.54-17-3.2-21.14-8.67l-24.6-32.5c4.15,5.47,10.93,9.21,21.14,8.67,5.27-.27,9.24-1.26,12.48-3.09C525.8,105,529,93.81,528.89,85.06c0-2.92-.63-10.36-5-16.51Z"/><path class="cls-2" d="M580,130.73l-24.59-32.5a44.69,44.69,0,0,0,2.24-14.91c-.07-4.26-1-15-8-24.31l24.6,32.5c7,9.29,8,20,8,24.31h0A44.7,44.7,0,0,1,580,130.73Z"/><path class="cls-2" d="M481.27,146.64c-.26-.32-.5-.63-.74-.95l-24.6-32.5c.24.32.49.63.74,1,3.4,4.31,13.71,17.39,46.73,15.66,7.13-.38,14.86-1.19,22.39-3.63l2.87,3.79,3.05,4,3.16,4.17,3.22,4.26,3.22,4.25,3.16,4.18,3,4,2.88,3.8c-7.54,2.44-15.26,3.25-22.39,3.63C495,164,484.67,151,481.27,146.64Z"/><path class="cls-2" d="M567.22,149.45h0a49.3,49.3,0,0,1-16.83,9.22l-24.6-32.5A49.3,49.3,0,0,0,542.62,117a40.59,40.59,0,0,0,9.53-11.36,41.32,41.32,0,0,0,3.3-7.36L580,130.73a41.63,41.63,0,0,1-12.82,18.72Z"/><path class="cls-3" d="M532.48,44.51c24.77,8.63,27.07,31.81,27.18,38.7a45.2,45.2,0,0,1-5.8,23.3,42.38,42.38,0,0,1-10,11.91c-12.44,10.52-27.41,12.64-40.42,13.32-34,1.79-44.78-11.88-48.32-16.36-5.66-7-8.38-15-8.54-25.06A46.5,46.5,0,0,1,454,63.49c9-13.4,24.36-20.65,46.87-22.19l1.54-.09C514.45,40.58,524.27,41.66,532.48,44.51Zm19.67,61.08a43.22,43.22,0,0,0,5.54-22.27c-.11-6.59-2.3-28.74-25.93-37-8-2.77-17.55-3.82-29.28-3.21-.52,0-1,.07-1.54.09-21.83,1.5-36.65,8.46-45.29,21.28a44.45,44.45,0,0,0-7.11,25.69c.16,9.65,2.74,17.25,8.13,23.93,3.4,4.31,13.71,17.39,46.73,15.66,12.67-.67,27.23-2.71,39.22-12.85a40.59,40.59,0,0,0,9.53-11.36"/><path class="cls-3" d="M503,59.57c9.34-.39,16.37,2.64,20.9,9,4.37,6.15,5,13.59,5,16.51.14,8.75-3.09,20-12.57,25.19-3.24,1.83-7.21,2.82-12.48,3.09-19.24,1-26.31-13.14-26.51-25.58-.13-8,2.59-15.53,7.47-20.64,4.43-4.62,10.42-7.15,17.8-7.54Zm12.4,49c8.7-4.8,11.66-15.22,11.53-23.38-.38-23.43-20-23.81-23.93-23.65l-.43,0c-6.81.36-12.31,2.68-16.35,6.9-6.41,6.69-7,15.67-6.91,19.22.3,18.43,12.86,24.34,24.51,23.73,4.94-.25,8.63-1.16,11.58-2.84"/><path class="cls-2" d="M531.76,46.36c23.63,8.22,25.82,30.37,25.93,37a43.22,43.22,0,0,1-5.54,22.27A40.59,40.59,0,0,1,542.62,117c-12,10.14-26.55,12.18-39.22,12.85-33,1.73-43.33-11.35-46.73-15.66-5.39-6.68-8-14.28-8.13-23.93a44.45,44.45,0,0,1,7.11-25.69c8.64-12.82,23.46-19.78,45.29-21.28.52,0,1-.06,1.54-.09C514.21,42.54,523.81,43.59,531.76,46.36Zm-15.44,63.89C525.8,105,529,93.81,528.89,85.06c0-2.92-.63-10.36-5-16.51-4.53-6.34-11.56-9.37-20.9-9h-.39c-7.38.39-13.37,2.92-17.8,7.54-4.88,5.11-7.6,12.62-7.47,20.64.2,12.44,7.27,26.59,26.51,25.58,5.27-.27,9.24-1.26,12.48-3.09"/><path class="cls-3" d="M551.24,57.78l24.6,32.5c7.36,9.73,8.35,21,8.42,25.43a45.2,45.2,0,0,1-5.8,23.3,42.38,42.38,0,0,1-10,11.91C556,161.44,541,163.56,528,164.24c-34,1.79-44.79-11.88-48.32-16.36-.28-.34-.54-.68-.8-1l-24.6-32.5.8,1c3.54,4.48,14.29,18.15,48.32,16.36,13-.68,28-2.8,40.42-13.32a42.38,42.38,0,0,0,10-11.91,45.2,45.2,0,0,0,5.8-23.3C559.59,78.76,558.61,67.51,551.24,57.78Z"/></g><g class="cls-1"><polygon class="cls-3" points="640.01 39 664.61 71.5 638.77 72.86 614.17 40.36 640.01 39"/><polygon class="cls-2" points="640.01 39 664.61 71.5 665.14 103.96 640.54 71.46 640.01 39"/><polygon class="cls-3" points="641.95 36.95 666.55 69.45 667.03 98.76 642.43 66.26 641.95 36.95"/><polygon class="cls-3" points="669.49 37.46 694.09 69.96 665.14 103.96 640.54 71.46 669.49 37.46"/><polygon class="cls-3" points="702.82 35.71 727.42 68.21 694.09 69.96 669.49 37.46 702.82 35.71"/><polygon class="cls-2" points="702.82 35.71 727.42 68.21 696.28 100.01 671.68 67.51 702.82 35.71"/><polygon class="cls-3" points="707.68 33.51 732.28 66.01 698.87 100.12 674.27 67.62 707.68 33.51"/><polygon class="cls-2" points="652.12 87.29 676.72 119.79 665.46 131.3 640.86 98.8 652.12 87.29"/><polygon class="cls-3" points="651.88 90.3 676.47 122.8 667.46 132.02 642.86 99.52 651.88 90.3"/><polygon class="cls-3" points="614.17 40.36 638.77 72.86 640.08 153.5 615.49 121 614.17 40.36"/><polygon class="cls-2" points="641.2 119.65 665.8 152.15 640.08 153.5 615.49 121 641.2 119.65"/><polygon class="cls-2" points="640.86 98.8 665.46 131.3 665.8 152.15 641.2 119.65 640.86 98.8"/><polygon class="cls-3" points="642.86 99.52 667.46 132.02 667.81 153.99 643.21 121.49 642.86 99.52"/><polygon class="cls-3" points="643.21 121.49 667.81 153.99 638.14 155.55 613.54 123.05 643.21 121.49"/><polygon class="cls-3" points="652.12 87.29 676.72 119.79 699.61 150.38 675.01 117.88 652.12 87.29"/><polygon class="cls-2" points="671.68 67.51 696.28 100.01 733.06 148.62 708.46 116.12 671.68 67.51"/><polygon class="cls-2" points="708.46 116.12 733.06 148.62 699.61 150.38 675.01 117.88 708.46 116.12"/><path class="cls-3" d="M674.27,67.62l38,50.25-38.27,2L651.88,90.3l-9,9.22.35,22-29.67,1.56-1.38-84.54L642,37l.48,29.31,26.15-30.7,39.1-2.05ZM652.12,87.29,675,117.88l33.45-1.76L671.68,67.51l31.14-31.8-33.33,1.75-29,34L640,39l-25.85,1.36L615.49,121l25.71-1.35-.34-20.85,11.26-11.51"/><polygon class="cls-2" points="702.82 35.71 671.68 67.51 708.46 116.12 675.01 117.88 652.12 87.29 640.86 98.8 641.2 119.65 615.49 121 614.17 40.36 640.01 39 640.54 71.46 669.49 37.46 702.82 35.71"/><polygon class="cls-3" points="712.29 117.87 736.89 150.37 698.62 152.38 674.02 119.88 712.29 117.87"/><polygon class="cls-3" points="674.27 67.62 698.87 100.12 736.89 150.37 712.29 117.87 674.27 67.62"/></g><g class="cls-1"><polygon class="cls-3" points="738.8 33.83 763.4 66.33 740.09 67.55 715.49 35.05 738.8 33.83"/><polygon class="cls-2" points="743.1 66.86 767.7 99.36 767.82 102.25 743.22 69.75 743.1 66.86"/><polygon class="cls-2" points="744.96 69.03 769.56 101.53 767.7 99.36 743.1 66.86 744.96 69.03"/><polygon class="cls-3" points="764.64 60.03 789.24 92.53 763.4 66.33 738.8 33.83 764.64 60.03"/><polygon class="cls-3" points="780.11 31.66 804.71 64.16 805 81.9 780.4 49.4 780.11 31.66"/><polygon class="cls-3" points="807.6 30.22 832.2 62.72 804.71 64.16 780.11 31.66 807.6 30.22"/><path class="cls-2" d="M754.6,79.85l24.6,32.5c-4.33-4.66-5.77-6.32-9.64-10.82L745,69C748.84,73.53,750.27,75.19,754.6,79.85Z"/><path class="cls-3" d="M753.13,81.21l24.6,32.5c-3.59-3.87-5.21-5.69-7.82-8.72l-24.6-32.5C747.93,75.52,749.54,77.34,753.13,81.21Z"/><path class="cls-2" d="M743.22,69.75l24.6,32.5c.5,12.2.61,16.31.81,23.79L744,93.54C743.83,86.06,743.72,82,743.22,69.75Z"/><path class="cls-3" d="M745.31,72.49l24.6,32.5c.4,10,.51,14.07.69,20.93L746,93.42C745.82,86.56,745.71,82.52,745.31,72.49Z"/><polygon class="cls-3" points="715.49 35.05 740.09 67.55 741.4 148.19 716.8 115.69 715.49 35.05"/><polygon class="cls-2" points="744.03 93.54 768.63 126.04 769.01 146.74 744.41 114.24 744.03 93.54"/><polygon class="cls-3" points="746 93.42 770.6 125.92 770.72 130.05 746.12 97.55 746 93.42"/><path class="cls-3" d="M779.66,76.49l24.6,32.5a172.39,172.39,0,0,0-15-16.46L764.64,60A172.39,172.39,0,0,1,779.66,76.49Z"/><path class="cls-3" d="M780.4,49.4,805,81.9c.18,11,.36,15.09,1,26.37l-24.59-32.5C780.76,64.49,780.58,60.43,780.4,49.4Z"/><polygon class="cls-3" points="781.6 78.83 806.2 111.33 804.26 109 779.66 76.5 781.6 78.83"/><polygon class="cls-3" points="781.42 75.77 806.01 108.27 806.2 111.33 781.6 78.83 781.42 75.77"/><polygon class="cls-2" points="744.41 114.24 769.01 146.74 741.4 148.19 716.8 115.69 744.41 114.24"/><polygon class="cls-3" points="746.12 97.55 770.72 130.05 771.02 148.59 746.42 116.08 746.12 97.55"/><polygon class="cls-3" points="746.42 116.08 771.02 148.59 739.46 150.24 714.86 117.74 746.42 116.08"/><polygon class="cls-2" points="785.49 112.09 810.09 144.59 779.2 112.35 754.6 79.85 785.49 112.09"/><polygon class="cls-3" points="784.63 114.08 809.23 146.58 777.73 113.71 753.13 81.21 784.63 114.08"/><polygon class="cls-2" points="808.92 110.86 833.51 143.36 810.09 144.59 785.49 112.09 808.92 110.86"/><polygon class="cls-2" points="807.6 30.22 832.2 62.72 833.51 143.36 808.92 110.86 807.6 30.22"/><path class="cls-3" d="M778.1,29.82l31.44-1.65,1.38,84.53-26.29,1.38-31.5-32.87c-3.59-3.87-5.2-5.69-7.82-8.72.4,10,.51,14.07.69,20.93l.12,4.13.3,18.53-31.56,1.66L713.49,33.2l26.15-1.37,26.44,26.8A169.23,169.23,0,0,1,779.27,72.9c-.52-9.1-.69-13.38-.85-23.4Zm30.82,81L807.6,30.22l-27.49,1.44.29,17.74c.18,11,.36,15.09,1,26.37l.18,3.06-1.94-2.34a172.39,172.39,0,0,0-15-16.46L738.8,33.82l-23.31,1.23,1.31,80.64,27.62-1.45L744,93.54c-.2-7.48-.31-11.59-.81-23.79l-.12-2.89L745,69c3.88,4.5,5.31,6.16,9.64,10.82l30.89,32.24,23.43-1.23"/><path class="cls-2" d="M807.6,30.22l1.32,80.64-23.43,1.23L754.6,79.85c-4.33-4.66-5.76-6.32-9.64-10.82l-1.86-2.17.12,2.89c.5,12.2.61,16.31.81,23.79l.39,20.7-27.62,1.45-1.31-80.64,23.31-1.23L764.64,60a172.39,172.39,0,0,1,15,16.46l1.94,2.34-.18-3.06c-.66-11.28-.84-15.34-1-26.37l-.29-17.74Z"/><polygon class="cls-3" points="809.54 28.17 834.14 60.67 835.52 145.2 810.92 112.7 809.54 28.17"/><polygon class="cls-3" points="810.92 112.7 835.52 145.2 809.23 146.58 784.63 114.08 810.92 112.7"/></g><g class="cls-1"><path class="cls-3" d="M924.49,39.36l24.6,32.5A37,37,0,0,0,931.2,59.22c-8-2.77-17.54-3.83-29.28-3.21l-1.54.09c-21.83,1.49-36.64,8.45-45.29,21.28a44.43,44.43,0,0,0-7.1,25.69c.15,9.19,2.5,16.52,7.39,23l-24.6-32.5c-4.88-6.46-7.24-13.79-7.39-23a44.43,44.43,0,0,1,7.1-25.69C839.14,32.05,854,25.09,875.78,23.6l1.54-.09c11.74-.62,21.33.44,29.28,3.21A37,37,0,0,1,924.49,39.36Z"/><path class="cls-2" d="M880.66,84.8l-24.6-32.5c.19-.33.39-.66.59-1,8.2,10.83,24.6,15.46,24.6,32.5C881.05,84.14,880.85,84.47,880.66,84.8Z"/><path class="cls-2" d="M881.25,83.82l-24.6-32.5a24,24,0,0,1,3-3.84c4.43-4.63,10.4-7.15,17.79-7.54l.39,0c8.18-.33,14.58,1.94,19.09,6.77l24.59,32.5c-4.5-4.83-10.91-7.11-19.09-6.77l-.39,0c-7.38.39-13.36,2.91-17.79,7.54A24.52,24.52,0,0,0,881.25,83.82Z"/><path class="cls-2" d="M922.51,80.34c-.32-.4-.65-.79-1-1.15l-24.59-32.5c.34.37.67.75,1,1.15l1.54,2L901.09,52l1.7,2.24,1.73,2.28,3.42,4.53,1.64,2.16,1.54,2L912.45,67l1.41,1.87,1.47,1.93,1.49,2,1.49,2,1.46,1.94,1.41,1.86Z"/><path class="cls-3" d="M897.15,50l24.6,32.5c-6.14-8.12-16.57-8.27-19.32-8.16l-24.6-32.5C880.58,41.77,891,41.92,897.15,50Z"/><path class="cls-2" d="M876.77,100.62a29,29,0,0,0,5.37,16.9L857.54,85a29,29,0,0,1-5.37-16.9,31,31,0,0,1,3.89-15.82l24.6,32.5A31,31,0,0,0,876.77,100.62Z"/><path class="cls-3" d="M883.44,116.12l-24.6-32.5c-2.8-3.69-4.59-8.79-4.7-15.6,0-3.56.5-12.53,6.91-19.23,4-4.21,9.54-6.54,16.35-6.9h.43l24.6,32.5H902c-6.81.36-12.31,2.69-16.35,6.9-6.41,6.7-7,15.67-6.91,19.23C878.85,107.33,880.64,112.43,883.44,116.12Z"/><path class="cls-3" d="M898.34,48.38l24.6,32.5c.13.18.26.35.38.53,4.39,6.14,5,13.59,5,16.51.14,8.74-3.09,20-12.58,25.18-3.23,1.83-7.21,2.82-12.47,3.1-10.22.53-17-3.2-21.15-8.68L857.54,85c4.15,5.48,10.94,9.21,21.15,8.68,5.27-.28,9.24-1.27,12.47-3.1,9.49-5.23,12.72-16.44,12.58-25.18,0-2.92-.63-10.37-5-16.51Z"/><path class="cls-2" d="M922.51,80.34l-1.33-1.76-1.41-1.86-.72-1-2.23-3-5.7-7.53-13.2-17.44.42.54,24.6,32.5Z"/><path class="cls-3" d="M877.83,39.92c9.34-.38,16.38,2.65,20.9,9,4.38,6.14,5,13.59,5,16.51.14,8.74-3.09,20-12.58,25.18-3.23,1.83-7.2,2.82-12.47,3.1-19.25,1-26.32-13.15-26.52-25.58-.13-8,2.59-15.54,7.48-20.64,4.43-4.63,10.4-7.15,17.79-7.54Zm12.41,49c8.7-4.79,11.65-15.22,11.52-23.38-.38-23.43-20-23.8-23.93-23.64h-.43c-6.81.36-12.31,2.69-16.35,6.9-6.41,6.7-7,15.67-6.91,19.23.3,18.42,12.86,24.34,24.52,23.73,4.94-.26,8.63-1.16,11.58-2.85"/><path class="cls-2" d="M950.33,120.52,925.74,88c.43-.68.85-1.37,1.26-2.08a43.29,43.29,0,0,0,5.53-22.27c-.07-4.26-1-15-8-24.31l24.6,32.5c7,9.3,8,20,8,24.31a43.2,43.2,0,0,1-5.54,22.27h0C951.19,119.15,950.77,119.84,950.33,120.52Z"/><path class="cls-2" d="M856.12,127c-.26-.31-.5-.63-.74-.94l-24.6-32.5.74.94c3.39,4.31,13.7,17.39,46.73,15.66,12.66-.66,27.22-2.71,39.21-12.85A39.91,39.91,0,0,0,925.74,88l2,2.71L930,93.62l2.27,3,2.3,3,2.31,3,2.26,3,2.18,2.88,2.06,2.72.81,1.07.87,1.15.9,1.18.91,1.21.92,1.21.89,1.19.87,1.14.81,1.08a39.64,39.64,0,0,1-8.27,9.28c-12,10.14-26.55,12.19-39.21,12.85h0C869.82,144.38,859.51,131.3,856.12,127Z"/><path class="cls-2" d="M906.6,26.72c23.63,8.22,25.83,30.36,25.93,37A43.29,43.29,0,0,1,927,85.94a40.34,40.34,0,0,1-9.54,11.36c-12,10.14-26.55,12.19-39.21,12.85-33,1.73-43.34-11.35-46.73-15.66-5.39-6.68-8-14.28-8.13-23.92a44.45,44.45,0,0,1,7.1-25.69C839.14,32.05,854,25.09,875.78,23.6l1.54-.09C889.06,22.89,898.65,24,906.6,26.72ZM891.16,90.6c9.49-5.23,12.72-16.44,12.58-25.18,0-2.92-.63-10.37-5-16.51-4.52-6.34-11.55-9.37-20.9-9l-.39,0c-7.39.39-13.36,2.91-17.79,7.54-4.89,5.1-7.61,12.62-7.48,20.64.2,12.43,7.27,26.59,26.52,25.58,5.27-.28,9.24-1.27,12.47-3.1"/><path class="cls-3" d="M907.32,24.87c24.78,8.62,27.07,31.8,27.18,38.7a45.06,45.06,0,0,1-5.8,23.29,42.21,42.21,0,0,1-10,11.91c-12.45,10.53-27.42,12.65-40.42,13.33-34,1.78-44.79-11.88-48.33-16.37-5.66-7-8.37-15-8.53-25.06s2.4-19.32,7.44-26.83c9-13.39,24.36-20.65,46.87-22.19l1.53-.09C889.28,20.93,899.12,22,907.32,24.87ZM927,85.94a43.29,43.29,0,0,0,5.53-22.27c-.1-6.59-2.3-28.73-25.93-36.95-8-2.77-17.54-3.83-29.28-3.21l-1.54.09c-21.83,1.49-36.64,8.45-45.29,21.28a44.43,44.43,0,0,0-7.1,25.69c.16,9.64,2.74,17.24,8.13,23.92,3.39,4.31,13.7,17.39,46.73,15.66,12.66-.66,27.22-2.71,39.21-12.85A40.34,40.34,0,0,0,927,85.94"/><path class="cls-3" d="M926.09,38.14l24.59,32.5c7.37,9.73,8.35,21,8.42,25.43a45.09,45.09,0,0,1-5.8,23.29,42.21,42.21,0,0,1-10,11.91c-12.45,10.53-27.43,12.65-40.42,13.33-34,1.78-44.8-11.88-48.33-16.37-.27-.33-.54-.67-.8-1l-24.59-32.5c.25.34.52.68.79,1,3.54,4.49,14.3,18.15,48.33,16.37,13-.68,28-2.8,40.42-13.33a42.21,42.21,0,0,0,10-11.91,45.06,45.06,0,0,0,5.8-23.29C934.43,59.11,933.45,47.87,926.09,38.14Z"/></g><g class="cls-1"><polygon class="cls-3" points="964.59 21.99 989.19 54.49 962.04 55.91 937.44 23.41 964.59 21.99"/><polygon class="cls-3" points="1016.82 19.25 1041.42 51.75 1012.46 53.27 987.86 20.77 1016.82 19.25"/><polygon class="cls-2" points="964.59 21.99 989.19 54.49 996.66 92.64 972.07 60.14 964.59 21.99"/><polygon class="cls-3" points="966.22 19.96 990.82 52.46 998.59 92.19 973.99 59.69 966.22 19.96"/><polygon class="cls-3" points="987.86 20.77 1012.46 53.27 1003.25 95.04 978.65 62.54 987.86 20.77"/><polygon class="cls-2" points="1002.1 38.25 1026.7 70.75 1025.92 78.88 1001.32 46.38 1002.1 38.25"/><polygon class="cls-3" points="1002.1 38.25 1026.7 70.75 1027.88 78.76 1003.28 46.26 1002.1 38.25"/><path class="cls-2" d="M972.06,60.14l24.6,32.5c1.39,6.73,1.79,8.75,2.6,14.78l-24.6-32.49C973.85,68.89,973.45,66.87,972.06,60.14Z"/><path class="cls-3" d="M974,59.69l24.6,32.5c.78,3.78,1.26,6.08,1.66,8.43l-24.6-32.5C975.25,65.77,974.78,63.47,974,59.69Z"/><path class="cls-3" d="M978.65,62.54l24.6,32.5c-1.07,5.82-1.3,7-2,12.32l-24.6-32.5C977.35,69.58,977.58,68.36,978.65,62.54Z"/><polygon class="cls-2" points="1016.82 19.25 1041.42 51.75 1046.71 74.14 1022.11 41.64 1016.82 19.25"/><polygon class="cls-3" points="1018.38 17.22 1042.98 49.72 1048.63 73.61 1024.03 41.11 1018.38 17.22"/><polygon class="cls-2" points="974.66 74.92 999.26 107.42 1000.21 114.53 975.61 82.03 974.66 74.92"/><polygon class="cls-3" points="976.61 74.86 1001.21 107.36 1000.21 114.53 975.61 82.03 976.61 74.86"/><polygon class="cls-2" points="998.22 64.79 1022.82 97.29 1013.89 133.91 989.29 101.41 998.22 64.79"/><polygon class="cls-3" points="1000.13 65.17 1024.73 97.67 1015.45 135.78 990.85 103.28 1000.13 65.17"/><path class="cls-2" d="M1022.81,97.29Q1010.53,81,998.22,64.79a105.34,105.34,0,0,0,3.1-18.41l24.6,32.5A105.46,105.46,0,0,1,1022.81,97.29Z"/><path class="cls-3" d="M1002.48,53.67l24.6,32.5c-.45,3.07-1.08,6.07-2.35,11.5l-24.6-32.5C1001.4,59.74,1002,56.74,1002.48,53.67Z"/><polygon class="cls-3" points="1065.95 16.68 1090.55 49.18 1063.52 50.6 1038.92 18.1 1065.95 16.68"/><path class="cls-3" d="M1003.28,46.26l24.6,32.5a108.12,108.12,0,0,0,3.81,17.71L1007.1,64A107.11,107.11,0,0,1,1003.28,46.26Z"/><polygon class="cls-3" points="937.44 23.41 962.04 55.91 983.11 135.52 958.51 103.02 937.44 23.41"/><path class="cls-2" d="M1022.11,41.64l24.6,32.5c3.77,14.77,4.39,17.59,6.75,30.15l-24.59-32.5C1026.5,59.23,1025.88,56.41,1022.11,41.64Z"/><path class="cls-3" d="M1024,41.11l24.6,32.5c3.06,12,4.06,16.13,5.58,24l-24.6-32.5C1028.09,57.24,1027.09,53.11,1024,41.11Z"/><polygon class="cls-3" points="1038.92 18.1 1063.52 50.6 1056.66 93.82 1032.06 61.32 1038.92 18.1"/><polygon class="cls-2" points="989.29 101.41 1013.89 133.91 983.11 135.52 958.51 103.02 989.29 101.41"/><path class="cls-3" d="M1032.06,61.32l24.6,32.5c-.15,1.23-.27,2.24-.39,3.17-.28,2.18-.49,3.85-.85,7.15l-24.6-32.5c.36-3.3.58-5,.85-7.15C1031.79,63.56,1031.91,62.55,1032.06,61.32Z"/><polygon class="cls-3" points="990.85 103.28 1015.45 135.78 981.6 137.55 957 105.05 990.85 103.28"/><polygon class="cls-2" points="1028.87 71.79 1053.46 104.28 1054.69 110.79 1030.09 78.29 1028.87 71.79"/><polygon class="cls-3" points="1030.82 71.64 1055.42 104.14 1054.69 110.79 1030.09 78.29 1030.82 71.64"/><polygon class="cls-3" points="1007.1 63.97 1031.69 96.47 1041.69 132.45 1017.09 99.95 1007.1 63.97"/><polygon class="cls-2" points="1047.62 98.35 1072.22 130.85 1041.69 132.45 1017.09 99.95 1047.62 98.35"/><polygon class="cls-2" points="1065.95 16.68 1090.55 49.18 1072.22 130.85 1047.62 98.35 1065.95 16.68"/><path class="cls-3" d="M1037.23,16.24l31.19-1.64-19.22,85.62L1015.59,102,1005.2,64.55c-1.39-4.93-2.09-7.55-2.72-10.88-.45,3.07-1.08,6.07-2.35,11.5l-9.28,38.1L957,105.05,934.9,21.6,966.22,20,974,59.69c.79,3.78,1.26,6.08,1.66,8.43.27-1.55.58-3.25,1.07-5.89l9.55-43.32,32.11-1.69L1024,41.11c3.06,12,4.06,16.13,5.58,24,0-.26.07-.51.1-.77.12-.93.25-1.93.4-3.2Zm10.39,82.11L1066,16.68l-27,1.42-6.86,43.22c-.15,1.23-.27,2.24-.39,3.17-.27,2.18-.49,3.85-.85,7.15l-.73,6.65-1.22-6.5c-2.37-12.56-3-15.38-6.76-30.15l-5.29-22.39-29,1.52-9.21,41.77c-1.07,5.82-1.3,7-2,12.32l-1,7.17-1-7.1c-.81-6-1.21-8.06-2.6-14.79L964.59,22l-27.15,1.42L958.51,103l30.78-1.61,8.93-36.62a105.34,105.34,0,0,0,3.1-18.41l.78-8.13,1.18,8A107.11,107.11,0,0,0,1007.1,64l10,36,30.53-1.6"/><path class="cls-2" d="M1066,16.68l-18.33,81.67-30.53,1.6-10-36a107.11,107.11,0,0,1-3.82-17.71l-1.18-8-.78,8.13a105.34,105.34,0,0,1-3.1,18.41l-8.93,36.62L958.51,103,937.44,23.41,964.59,22l7.47,38.15c1.39,6.73,1.79,8.75,2.6,14.79l1,7.1,1-7.17c.74-5.28,1-6.5,2-12.32l9.21-41.77,29-1.52,5.29,22.39c3.77,14.77,4.39,17.59,6.76,30.15l1.22,6.5.73-6.65c.36-3.3.58-5,.85-7.15.12-.93.24-1.94.39-3.17l6.86-43.22Z"/><polygon class="cls-3" points="1049.2 100.22 1073.8 132.72 1040.18 134.48 1015.59 101.98 1049.2 100.22"/><polygon class="cls-3" points="1068.42 14.6 1093.02 47.1 1073.8 132.72 1049.2 100.22 1068.42 14.6"/></g><g class="cls-1"><polygon class="cls-3" points="1156.37 11.94 1180.97 44.44 1142.98 46.43 1118.38 13.93 1156.37 11.94"/><polygon class="cls-3" points="1118.38 13.93 1142.98 46.43 1144.29 127.07 1119.69 94.57 1118.38 13.93"/><polygon class="cls-3" points="1237.72 7.68 1262.32 40.18 1224.45 42.16 1199.85 9.66 1237.72 7.68"/><polygon class="cls-2" points="1156.37 11.94 1180.97 44.44 1203.62 98.96 1179.02 66.46 1156.37 11.94"/><polygon class="cls-3" points="1157.69 9.92 1182.29 42.42 1203.53 93.55 1178.93 61.05 1157.69 9.92"/><polygon class="cls-3" points="1199.85 9.66 1224.45 42.16 1203.62 98.96 1179.02 66.46 1199.85 9.66"/><polygon class="cls-2" points="1147.08 93.14 1171.67 125.64 1144.29 127.07 1119.69 94.57 1147.08 93.14"/><polygon class="cls-2" points="1146.15 35.98 1170.74 68.48 1171.67 125.64 1147.08 93.14 1146.15 35.98"/><polygon class="cls-3" points="1149.08 94.98 1173.68 127.48 1142.35 129.12 1117.75 96.62 1149.08 94.98"/><polygon class="cls-3" points="1148.3 46.86 1172.89 79.36 1173.68 127.48 1149.08 94.98 1148.3 46.86"/><polygon class="cls-3" points="1146.15 35.98 1170.74 68.48 1192.87 124.53 1168.28 92.03 1146.15 35.98"/><polygon class="cls-2" points="1189.98 90.89 1214.58 123.39 1192.87 124.53 1168.28 92.03 1189.98 90.89"/><polygon class="cls-2" points="1210.48 32.41 1235.08 64.91 1214.58 123.39 1189.98 90.89 1210.48 32.41"/><polygon class="cls-3" points="1208.69 43.42 1233.29 75.92 1215.98 125.27 1191.39 92.77 1208.69 43.42"/><polygon class="cls-3" points="1191.39 92.77 1215.98 125.27 1191.53 126.55 1166.93 94.05 1191.39 92.77"/><polygon class="cls-3" points="1210.48 32.41 1235.08 64.91 1236.02 122.27 1211.42 89.77 1210.48 32.41"/><polygon class="cls-2" points="1239.03 88.32 1263.63 120.82 1236.02 122.27 1211.42 89.77 1239.03 88.32"/><polygon class="cls-2" points="1237.72 7.68 1262.32 40.18 1263.63 120.82 1239.03 88.32 1237.72 7.68"/><polygon class="cls-2" points="1237.72 7.68 1239.03 88.32 1211.42 89.77 1210.48 32.41 1189.98 90.89 1168.28 92.03 1146.15 35.98 1147.08 93.14 1119.69 94.57 1118.38 13.93 1156.37 11.94 1179.02 66.46 1199.85 9.66 1237.72 7.68"/><polygon class="cls-3" points="1241.04 90.16 1265.63 122.66 1234.08 124.32 1209.48 91.82 1241.04 90.16"/><polygon class="cls-3" points="1239.66 5.63 1264.26 38.13 1265.63 122.66 1241.04 90.16 1239.66 5.63"/><path class="cls-3" d="M1198.47,7.79l41.19-2.16L1241,90.16l-31.56,1.66-.79-48.4-17.3,49.34-24.46,1.29L1148.3,46.86l.78,48.12-31.33,1.64-1.37-84.53,41.31-2.17,21.24,51.13ZM1239,88.32l-1.31-80.64-37.87,2L1179,66.46l-22.65-54.52-38,2,1.31,80.64,27.39-1.43L1146.15,36,1168.27,92,1190,90.89l20.5-58.48.94,57.36L1239,88.32"/></g><g class="cls-1"><polygon class="cls-3" points="1345.07 2.05 1369.67 34.55 1283.59 39.06 1258.99 6.56 1345.07 2.05"/><polygon class="cls-2" points="1287.23 21.75 1311.83 54.25 1312.08 69.65 1287.48 37.15 1287.23 21.75"/><polygon class="cls-2" points="1345.34 18.7 1369.94 51.2 1311.83 54.25 1287.23 21.75 1345.34 18.7"/><polygon class="cls-3" points="1289.24 23.59 1313.83 56.09 1314.02 67.6 1289.42 35.1 1289.24 23.59"/><polygon class="cls-2" points="1345.07 2.05 1369.67 34.55 1369.94 51.2 1345.34 18.7 1345.07 2.05"/><polygon class="cls-3" points="1347.35 20.55 1371.95 53.05 1313.83 56.09 1289.24 23.59 1347.35 20.55"/><polygon class="cls-3" points="1347.02 0 1371.62 32.5 1371.95 53.05 1347.35 20.55 1347.02 0"/><polygon class="cls-3" points="1258.99 6.56 1283.59 39.06 1284.9 119.7 1260.3 87.2 1258.99 6.56"/><polygon class="cls-2" points="1287.64 53.92 1312.24 86.42 1312.48 101.48 1287.89 68.98 1287.64 53.92"/><polygon class="cls-3" points="1341.22 34.33 1365.82 66.83 1312.08 69.65 1287.48 37.15 1341.22 34.33"/><polygon class="cls-2" points="1341.49 51.1 1366.09 83.6 1312.24 86.42 1287.64 53.92 1341.49 51.1"/><polygon class="cls-3" points="1289.64 55.77 1314.24 88.27 1314.42 99.42 1289.83 66.92 1289.64 55.77"/><polygon class="cls-2" points="1341.22 34.33 1365.82 66.83 1366.09 83.6 1341.49 51.1 1341.22 34.33"/><polygon class="cls-3" points="1343.16 32.28 1367.75 64.78 1368.09 85.44 1343.49 52.94 1343.16 32.28"/><polygon class="cls-3" points="1343.49 52.94 1368.09 85.44 1314.24 88.27 1289.64 55.77 1343.49 52.94"/><polygon class="cls-3" points="1347.3 65.86 1371.9 98.36 1312.48 101.48 1287.89 68.98 1347.3 65.86"/><polygon class="cls-2" points="1345.07 2.05 1345.34 18.7 1287.23 21.75 1287.48 37.15 1341.22 34.33 1341.49 51.1 1287.64 53.92 1287.89 68.98 1347.3 65.86 1347.57 82.63 1260.3 87.2 1258.99 6.56 1345.07 2.05"/><polygon class="cls-2" points="1347.3 65.86 1371.9 98.36 1372.17 115.13 1347.57 82.63 1347.3 65.86"/><polygon class="cls-2" points="1347.57 82.63 1372.17 115.13 1284.9 119.7 1260.3 87.2 1347.57 82.63"/><polygon class="cls-3" points="1349.58 84.47 1374.17 116.97 1282.96 121.75 1258.36 89.25 1349.58 84.47"/><polygon class="cls-3" points="1349.24 63.8 1373.84 96.3 1374.17 116.97 1349.58 84.47 1349.24 63.8"/><path class="cls-3" d="M1289.83,66.92l59.41-3.12.34,20.67-91.22,4.78L1257,4.72,1347,0l.33,20.55-58.11,3,.18,11.51,53.74-2.82.33,20.66-53.85,2.83Zm57.74,15.71-.27-16.77L1287.89,69l-.25-15.06,53.85-2.82-.27-16.77-53.74,2.82-.25-15.4,58.11-3.05-.27-16.65L1259,6.56l1.31,80.64,87.27-4.57"/></g></g></g></svg>